<?xml version="1.0" encoding="utf-8" standalone="no"?>
<!DOCTYPE svg PUBLIC "-//W3C//DTD SVG 1.1//EN"
  "http://www.w3.org/Graphics/SVG/1.1/DTD/svg11.dtd">
<svg height="698.4pt" version="1.1" viewBox="0 0 1130.4 698.4" width="1130.4pt" xmlns="http://www.w3.org/2000/svg" xmlns:xlink="http://www.w3.org/1999/xlink">
 <metadata>
  <rdf:RDF xmlns:cc="http://creativecommons.org/ns#" xmlns:dc="http://purl.org/dc/elements/1.1/" xmlns:rdf="http://www.w3.org/1999/02/22-rdf-syntax-ns#">
   <cc:Work>
    <dc:type rdf:resource="http://purl.org/dc/dcmitype/StillImage"/>
    <dc:date>2021-05-08T10:01:05.843690</dc:date>
    <dc:format>image/svg+xml</dc:format>
    <dc:creator>
     <cc:Agent>
      <dc:title>Matplotlib v3.4.2, https://matplotlib.org/</dc:title>
     </cc:Agent>
    </dc:creator>
   </cc:Work>
  </rdf:RDF>
 </metadata>
 <defs>
  <style type="text/css">*{stroke-linecap:butt;stroke-linejoin:round;}</style>
 </defs>
 <g id="figure_1">
  <g id="patch_1">
   <path d="M 0 698.4 
L 1130.4 698.4 
L 1130.4 0 
L 0 0 
z
"/>
  </g>
  <g id="axes_1">
   <g id="line2d_1">
    <path clip-path="url(#p552d676214)" d="M 51.381818 463.475347 
L 85.750927 492.883078 
L 102.935482 507.324861 
L 120.120036 521.456631 
L 133.86768 532.473391 
L 147.615324 543.181611 
L 157.926057 550.982592 
L 168.236789 558.565536 
L 178.547522 565.912547 
L 188.858255 573.006475 
L 199.168988 579.830957 
L 209.47972 586.370449 
L 219.790453 592.610258 
L 230.101186 598.536578 
L 240.411919 604.136514 
L 250.722651 609.398106 
L 261.033384 614.310361 
L 271.344117 618.863267 
L 278.217939 621.69441 
L 285.09176 624.359401 
L 291.965582 626.856027 
L 298.839404 629.18228 
L 305.713226 631.336361 
L 312.587048 633.316678 
L 319.46087 635.121852 
L 326.334691 636.750713 
L 333.208513 638.202304 
L 340.082335 639.475881 
L 346.956157 640.570915 
L 353.829979 641.487091 
L 360.703801 642.224305 
L 367.577622 642.782671 
L 374.451444 643.162515 
L 381.325266 643.364378 
L 388.199088 643.389012 
L 395.07291 643.237383 
L 401.946732 642.910668 
L 408.820553 642.410253 
L 415.694375 641.737734 
L 422.568197 640.894913 
L 429.442019 639.883799 
L 436.315841 638.706603 
L 443.189663 637.365738 
L 450.063484 635.863817 
L 456.937306 634.203648 
L 463.811128 632.388234 
L 474.121861 629.381067 
L 484.432593 626.043398 
L 494.743326 622.387723 
L 505.054059 618.427435 
L 515.364792 614.176799 
L 525.675524 609.650916 
L 535.986257 604.865694 
L 546.29699 599.837807 
L 556.607723 594.58466 
L 566.918455 589.124347 
L 580.666099 581.554154 
L 594.413743 573.695128 
L 608.161386 565.595043 
L 625.345941 555.206136 
L 649.404317 540.347274 
L 694.084159 512.664979 
L 711.268714 502.298336 
L 725.016358 494.226056 
L 738.764001 486.406348 
L 752.511645 478.889821 
L 762.822378 473.481021 
L 773.13311 468.290531 
L 783.443843 463.337777 
L 793.754576 458.64144 
L 804.065309 454.219364 
L 814.376041 450.088464 
L 824.686774 446.264632 
L 834.997507 442.762641 
L 845.30824 439.596043 
L 852.182061 437.677405 
L 859.055883 435.916575 
L 865.929705 434.316534 
L 872.803527 432.879956 
L 879.677349 431.609191 
L 886.551171 430.506252 
L 893.424992 429.572799 
L 900.298814 428.810125 
L 907.172636 428.219142 
L 914.046458 427.800364 
L 920.92028 427.553892 
L 927.794102 427.4794 
L 934.667923 427.576119 
L 941.541745 427.842817 
L 948.415567 428.277789 
L 955.289389 428.878837 
L 962.163211 429.643253 
L 969.037033 430.567807 
L 975.910854 431.648723 
L 986.221587 433.553638 
L 996.53232 435.783405 
L 1006.843053 438.317892 
L 1017.153785 441.133782 
L 1027.464518 444.204432 
L 1037.775251 447.499736 
L 1051.522894 452.18413 
L 1065.270538 457.117195 
L 1079.018182 462.196114 
L 1079.018182 462.196114 
" style="fill:none;stroke:#8dd3c7;stroke-linecap:square;"/>
   </g>
   <g id="line2d_2">
    <path clip-path="url(#p552d676214)" d="M 51.381818 477.031339 
L 82.314016 503.505133 
L 99.498571 517.96683 
L 116.683126 532.113141 
L 130.430769 543.132281 
L 144.178413 553.83061 
L 154.489146 561.614059 
L 164.799878 569.169329 
L 175.110611 576.477294 
L 185.421344 583.519673 
L 195.732077 590.27906 
L 206.042809 596.738957 
L 216.353542 602.883808 
L 226.664275 608.699024 
L 236.975008 614.171011 
L 247.28574 619.287195 
L 254.159562 622.494577 
L 261.033384 625.53552 
L 267.907206 628.407082 
L 274.781028 631.106532 
L 281.654849 633.631357 
L 288.528671 635.979261 
L 295.402493 638.14817 
L 302.276315 640.136229 
L 309.150137 641.941806 
L 316.023959 643.563492 
L 322.89778 645.000103 
L 329.771602 646.25068 
L 336.645424 647.314489 
L 343.519246 648.191023 
L 350.393068 648.879998 
L 357.26689 649.381359 
L 364.140711 649.695274 
L 371.014533 649.822138 
L 377.888355 649.762569 
L 384.762177 649.517409 
L 391.635999 649.087722 
L 398.509821 648.474793 
L 405.383642 647.680129 
L 412.257464 646.705453 
L 419.131286 645.552704 
L 426.005108 644.224037 
L 432.87893 642.721818 
L 439.752752 641.048624 
L 446.626573 639.207238 
L 453.500395 637.200649 
L 460.374217 635.032045 
L 467.248039 632.704815 
L 477.558772 628.924435 
L 487.869504 624.80815 
L 498.180237 620.369798 
L 508.49097 615.624125 
L 518.801703 610.586759 
L 529.112435 605.274166 
L 539.423168 599.70362 
L 549.733901 593.893158 
L 560.044634 587.861545 
L 573.792277 579.509076 
L 587.539921 570.845906 
L 601.287565 561.921655 
L 618.472119 550.477333 
L 639.093585 536.456505 
L 694.084159 498.883089 
L 711.268714 487.494552 
L 725.016358 478.633747 
L 738.764001 470.053439 
L 749.074734 463.833898 
L 759.385467 457.823236 
L 769.696199 452.042418 
L 780.006932 446.511729 
L 790.317665 441.250685 
L 800.628398 436.27794 
L 810.93913 431.611191 
L 821.249863 427.267082 
L 831.560596 423.261105 
L 838.434418 420.785391 
L 845.30824 418.470204 
L 852.182061 416.31915 
L 859.055883 414.335541 
L 865.929705 412.522378 
L 872.803527 410.88234 
L 879.677349 409.417764 
L 886.551171 408.130637 
L 893.424992 407.022575 
L 900.298814 406.094811 
L 907.172636 405.348181 
L 914.046458 404.783103 
L 920.92028 404.399567 
L 927.794102 404.197117 
L 934.667923 404.174835 
L 941.541745 404.331323 
L 948.415567 404.664689 
L 955.289389 405.17253 
L 962.163211 405.851914 
L 969.037033 406.699362 
L 975.910854 407.710835 
L 982.784676 408.881711 
L 993.095409 410.925324 
L 1003.406142 413.295479 
L 1013.716874 415.968695 
L 1024.027607 418.918095 
L 1034.33834 422.113268 
L 1044.649073 425.520124 
L 1058.396716 430.325785 
L 1075.581271 436.611648 
L 1079.018182 437.888296 
L 1079.018182 437.888296 
" style="fill:none;stroke:#feffb3;stroke-linecap:square;"/>
   </g>
   <g id="line2d_3">
    <path clip-path="url(#p552d676214)" d="M 51.381818 489.991938 
L 82.314016 516.40626 
L 99.498571 530.814913 
L 113.246215 542.102526 
L 126.993858 553.114737 
L 140.741502 563.79619 
L 151.052235 571.558353 
L 161.362967 579.083425 
L 171.6737 586.351024 
L 181.984433 593.341699 
L 192.295166 600.036967 
L 202.605898 606.419343 
L 212.916631 612.472365 
L 223.227364 618.180628 
L 233.538097 623.529801 
L 240.411919 626.889842 
L 247.28574 630.080741 
L 254.159562 633.099076 
L 261.033384 635.941652 
L 267.907206 638.605502 
L 274.781028 641.087889 
L 281.654849 643.386308 
L 288.528671 645.498484 
L 295.402493 647.422379 
L 302.276315 649.156189 
L 309.150137 650.698346 
L 316.023959 652.047519 
L 322.89778 653.202615 
L 329.771602 654.162778 
L 336.645424 654.927388 
L 343.519246 655.496066 
L 350.393068 655.868668 
L 357.26689 656.045287 
L 364.140711 656.026254 
L 371.014533 655.812135 
L 377.888355 655.403728 
L 384.762177 654.802068 
L 391.635999 654.00842 
L 398.509821 653.024279 
L 405.383642 651.851369 
L 412.257464 650.491642 
L 419.131286 648.947271 
L 426.005108 647.220655 
L 432.87893 645.314409 
L 439.752752 643.231368 
L 446.626573 640.974579 
L 453.500395 638.547299 
L 460.374217 635.952995 
L 467.248039 633.195336 
L 477.558772 628.761077 
L 487.869504 623.981908 
L 498.180237 618.872679 
L 508.49097 613.449167 
L 518.801703 607.728046 
L 529.112435 601.726845 
L 539.423168 595.46391 
L 549.733901 588.958361 
L 560.044634 582.230049 
L 573.792277 572.948033 
L 587.539921 563.356985 
L 601.287565 553.509107 
L 618.472119 540.920135 
L 642.530496 522.968552 
L 683.773427 492.117773 
L 700.957981 479.540768 
L 714.705625 469.709745 
L 728.453268 460.144854 
L 742.200912 450.901397 
L 752.511645 444.212193 
L 762.822378 437.756166 
L 773.13311 431.554697 
L 783.443843 425.628409 
L 793.754576 419.997074 
L 804.065309 414.679511 
L 814.376041 409.693498 
L 824.686774 405.055661 
L 831.560596 402.164852 
L 838.434418 399.439881 
L 845.30824 396.884693 
L 852.182061 394.50294 
L 859.055883 392.297965 
L 865.929705 390.272785 
L 872.803527 388.43008 
L 879.677349 386.772174 
L 886.551171 385.301024 
L 893.424992 384.018204 
L 900.298814 382.924885 
L 907.172636 382.021826 
L 914.046458 381.309354 
L 920.92028 380.787347 
L 927.794102 380.455221 
L 934.667923 380.311914 
L 941.541745 380.355864 
L 948.415567 380.584998 
L 955.289389 380.996712 
L 962.163211 381.587856 
L 969.037033 382.354712 
L 975.910854 383.292982 
L 982.784676 384.397768 
L 989.658498 385.663552 
L 999.969231 387.850461 
L 1010.279964 390.36207 
L 1020.590696 393.171374 
L 1030.901429 396.247771 
L 1041.212162 399.556914 
L 1054.959805 404.264484 
L 1072.14436 410.478078 
L 1079.018182 413.019674 
L 1079.018182 413.019674 
" style="fill:none;stroke:#bfbbd9;stroke-linecap:square;"/>
   </g>
   <g id="line2d_4">
    <path clip-path="url(#p552d676214)" d="M 51.381818 501.858393 
L 82.314016 528.134724 
L 99.498571 542.447788 
L 113.246215 553.642534 
L 126.993858 564.543576 
L 137.304591 572.491367 
L 147.615324 580.217446 
L 157.926057 587.699185 
L 168.236789 594.914942 
L 178.547522 601.844097 
L 188.858255 608.467085 
L 199.168988 614.765423 
L 209.47972 620.721736 
L 219.790453 626.319784 
L 226.664275 629.845282 
L 233.538097 633.200645 
L 240.411919 636.381926 
L 247.28574 639.385419 
L 254.159562 642.207655 
L 261.033384 644.845407 
L 267.907206 647.295692 
L 274.781028 649.555769 
L 281.654849 651.623144 
L 288.528671 653.495569 
L 295.402493 655.171045 
L 302.276315 656.647819 
L 309.150137 657.92439 
L 316.023959 658.999504 
L 322.89778 659.872156 
L 329.771602 660.541593 
L 336.645424 661.007309 
L 343.519246 661.269048 
L 350.393068 661.326801 
L 357.26689 661.180807 
L 364.140711 660.831552 
L 371.014533 660.279767 
L 377.888355 659.526426 
L 384.762177 658.572747 
L 391.635999 657.420187 
L 398.509821 656.070443 
L 405.383642 654.525448 
L 412.257464 652.78737 
L 419.131286 650.858608 
L 426.005108 648.741789 
L 432.87893 646.43977 
L 439.752752 643.955627 
L 446.626573 641.292659 
L 453.500395 638.45438 
L 460.374217 635.444517 
L 467.248039 632.267007 
L 477.558772 627.195516 
L 487.869504 621.771003 
L 498.180237 616.00927 
L 508.49097 609.927068 
L 518.801703 603.542054 
L 529.112435 596.872756 
L 539.423168 589.938528 
L 549.733901 582.759505 
L 560.044634 575.35656 
L 573.792277 565.174993 
L 587.539921 554.686571 
L 604.724476 541.227879 
L 625.345941 524.71244 
L 694.084159 469.246858 
L 707.831803 458.524188 
L 721.579447 448.063229 
L 735.32709 437.921657 
L 745.637823 430.558984 
L 755.948556 423.430749 
L 766.259289 416.559397 
L 776.570021 409.966627 
L 786.880754 403.673304 
L 797.191487 397.699354 
L 807.50222 392.063671 
L 817.812952 386.784015 
L 824.686774 383.47025 
L 831.560596 380.326658 
L 838.434418 377.357529 
L 845.30824 374.566859 
L 852.182061 371.958335 
L 859.055883 369.535323 
L 865.929705 367.300852 
L 872.803527 365.257597 
L 879.677349 363.407866 
L 886.551171 361.753585 
L 893.424992 360.29628 
L 900.298814 359.037063 
L 907.172636 357.976618 
L 914.046458 357.115178 
L 920.92028 356.452517 
L 927.794102 355.987928 
L 934.667923 355.720208 
L 941.541745 355.647642 
L 948.415567 355.767984 
L 955.289389 356.07844 
L 962.163211 356.575652 
L 969.037033 357.25568 
L 975.910854 358.113982 
L 982.784676 359.145398 
L 989.658498 360.344132 
L 996.53232 361.703732 
L 1006.843053 364.02898 
L 1017.153785 366.672992 
L 1027.464518 369.605124 
L 1037.775251 372.790938 
L 1048.085984 376.192044 
L 1061.833627 380.98771 
L 1079.018182 387.240844 
L 1079.018182 387.240844 
" style="fill:none;stroke:#fa8174;stroke-linecap:square;"/>
   </g>
   <g id="line2d_5">
    <path clip-path="url(#p552d676214)" d="M 51.381818 512.23061 
L 82.314016 538.260461 
L 99.498571 552.419254 
L 113.246215 563.475585 
L 126.993858 574.221494 
L 137.304591 582.040283 
L 147.615324 589.625341 
L 157.926057 596.953086 
L 168.236789 604.001018 
L 178.547522 610.747758 
L 188.858255 617.173066 
L 199.168988 623.257875 
L 209.47972 628.984313 
L 216.353542 632.594567 
L 223.227364 636.033486 
L 230.101186 639.296686 
L 236.975008 642.380032 
L 243.848829 645.279641 
L 250.722651 647.991879 
L 257.596473 650.513372 
L 264.470295 652.840997 
L 271.344117 654.971889 
L 278.217939 656.903444 
L 285.09176 658.633314 
L 291.965582 660.159411 
L 298.839404 661.479908 
L 305.713226 662.593238 
L 312.587048 663.498095 
L 319.46087 664.193433 
L 326.334691 664.678466 
L 333.208513 664.952669 
L 340.082335 665.015776 
L 346.956157 664.867777 
L 353.829979 664.508923 
L 360.703801 663.939718 
L 367.577622 663.160923 
L 374.451444 662.17355 
L 381.325266 660.978865 
L 388.199088 659.578381 
L 395.07291 657.973859 
L 401.946732 656.167307 
L 408.820553 654.160972 
L 415.694375 651.957343 
L 422.568197 649.559144 
L 429.442019 646.969336 
L 436.315841 644.191108 
L 443.189663 641.227875 
L 450.063484 638.083278 
L 456.937306 634.761175 
L 463.811128 631.265642 
L 474.121861 625.706591 
L 484.432593 619.782345 
L 494.743326 613.509248 
L 505.054059 606.904617 
L 515.364792 599.986704 
L 525.675524 592.774655 
L 535.986257 585.288462 
L 546.29699 577.548923 
L 556.607723 569.577588 
L 570.355366 558.62713 
L 584.10301 547.35876 
L 597.850654 535.828835 
L 615.035208 521.137015 
L 639.093585 500.255495 
L 676.899605 467.427435 
L 694.084159 452.79518 
L 707.831803 441.334823 
L 721.579447 430.158104 
L 735.32709 419.324242 
L 745.637823 411.458622 
L 755.948556 403.842011 
L 766.259289 396.497377 
L 776.570021 389.4469 
L 786.880754 382.711878 
L 797.191487 376.31263 
L 807.50222 370.268392 
L 817.812952 364.597217 
L 824.686774 361.032026 
L 831.560596 357.644747 
L 838.434418 354.439717 
L 845.30824 351.420969 
L 852.182061 348.592216 
L 859.055883 345.956838 
L 865.929705 343.517864 
L 872.803527 341.27796 
L 879.677349 339.239413 
L 886.551171 337.404112 
L 893.424992 335.773536 
L 900.298814 334.348737 
L 907.172636 333.130323 
L 914.046458 332.118442 
L 920.92028 331.312764 
L 927.794102 330.712469 
L 934.667923 330.316224 
L 941.541745 330.122168 
L 948.415567 330.127898 
L 955.289389 330.330446 
L 962.163211 330.726265 
L 969.037033 331.31121 
L 975.910854 332.08052 
L 982.784676 333.028799 
L 989.658498 334.149998 
L 996.53232 335.437398 
L 1003.406142 336.883588 
L 1013.716874 339.332643 
L 1024.027607 342.090036 
L 1034.33834 345.121431 
L 1044.649073 348.388505 
L 1058.396716 353.037208 
L 1075.581271 359.157555 
L 1079.018182 360.403214 
L 1079.018182 360.403214 
" style="fill:none;stroke:#81b1d2;stroke-linecap:square;"/>
   </g>
   <g id="line2d_6">
    <path clip-path="url(#p552d676214)" d="M 51.381818 520.799849 
L 78.877106 543.627707 
L 96.06166 557.624996 
L 109.809304 568.558418 
L 123.556947 579.183185 
L 133.86768 586.910312 
L 144.178413 594.401589 
L 154.489146 601.632235 
L 164.799878 608.57863 
L 175.110611 615.218344 
L 185.421344 621.530164 
L 195.732077 627.49412 
L 206.042809 633.091504 
L 212.916631 636.610785 
L 219.790453 639.954533 
L 226.664275 643.118166 
L 233.538097 646.097364 
L 240.411919 648.888068 
L 247.28574 651.486487 
L 254.159562 653.889092 
L 261.033384 656.092625 
L 267.907206 658.094094 
L 274.781028 659.890778 
L 281.654849 661.480225 
L 288.528671 662.860253 
L 295.402493 664.028952 
L 302.276315 664.98468 
L 309.150137 665.726067 
L 316.023959 666.252016 
L 322.89778 666.561695 
L 329.771602 666.654545 
L 336.645424 666.530274 
L 343.519246 666.188856 
L 350.393068 665.630533 
L 357.26689 664.855811 
L 364.140711 663.865458 
L 371.014533 662.660506 
L 377.888355 661.242243 
L 384.762177 659.612217 
L 391.635999 657.77223 
L 398.509821 655.724334 
L 405.383642 653.470834 
L 412.257464 651.014279 
L 419.131286 648.357464 
L 426.005108 645.503422 
L 432.87893 642.455424 
L 439.752752 639.216975 
L 446.626573 635.791806 
L 453.500395 632.183878 
L 460.374217 628.397369 
L 467.248039 624.436676 
L 477.558772 618.179179 
L 487.869504 611.556609 
L 498.180237 604.586398 
L 508.49097 597.286953 
L 518.801703 589.677606 
L 529.112435 581.778576 
L 539.423168 573.610918 
L 549.733901 565.196477 
L 563.481545 553.632468 
L 577.229188 541.725358 
L 590.976832 529.532473 
L 608.161386 513.979543 
L 632.219763 491.836181 
L 673.462694 453.763132 
L 690.647248 438.192854 
L 704.394892 425.984983 
L 718.142536 414.065063 
L 731.890179 402.493913 
L 742.200912 394.080165 
L 752.511645 385.920317 
L 762.822378 378.038004 
L 773.13311 370.456065 
L 783.443843 363.196457 
L 793.754576 356.280147 
L 804.065309 349.727015 
L 814.376041 343.555749 
L 821.249863 339.662365 
L 828.123685 335.951268 
L 834.997507 332.426977 
L 841.871329 329.093704 
L 848.745151 325.955341 
L 855.618972 323.015442 
L 862.492794 320.27721 
L 869.366616 317.743483 
L 876.240438 315.416713 
L 883.11426 313.298958 
L 889.988081 311.391859 
L 896.861903 309.696629 
L 903.735725 308.214033 
L 910.609547 306.944374 
L 917.483369 305.887476 
L 924.357191 305.042665 
L 931.231012 304.408756 
L 938.104834 303.98403 
L 944.978656 303.766224 
L 951.852478 303.752505 
L 958.7263 303.939461 
L 965.600122 304.323075 
L 972.473943 304.898712 
L 979.347765 305.661099 
L 986.221587 306.604306 
L 993.095409 307.721729 
L 999.969231 309.006068 
L 1006.843053 310.449311 
L 1017.153785 312.892787 
L 1027.464518 315.64124 
L 1037.775251 318.658005 
L 1048.085984 321.90231 
L 1061.833627 326.503533 
L 1079.018182 332.527878 
L 1079.018182 332.527878 
" style="fill:none;stroke:#fdb462;stroke-linecap:square;"/>
   </g>
   <g id="line2d_7">
    <path clip-path="url(#p552d676214)" d="M 51.381818 527.341591 
L 78.877106 549.699407 
L 96.06166 563.392004 
L 109.809304 574.071377 
L 123.556947 584.430456 
L 133.86768 591.949459 
L 144.178413 599.224173 
L 154.489146 606.22914 
L 164.799878 612.940142 
L 175.110611 619.33422 
L 185.421344 625.389706 
L 195.732077 631.086242 
L 202.605898 634.675062 
L 209.47972 638.090556 
L 216.353542 641.327687 
L 223.227364 644.381687 
L 230.101186 647.248059 
L 236.975008 649.922582 
L 243.848829 652.401309 
L 250.722651 654.680567 
L 257.596473 656.756963 
L 264.470295 658.627381 
L 271.344117 660.288983 
L 278.217939 661.73921 
L 285.09176 662.975783 
L 291.965582 663.996702 
L 298.839404 664.800247 
L 305.713226 665.384975 
L 312.587048 665.749723 
L 319.46087 665.893605 
L 326.334691 665.816013 
L 333.208513 665.516615 
L 340.082335 664.995352 
L 346.956157 664.25244 
L 353.829979 663.288366 
L 360.703801 662.103887 
L 367.577622 660.700027 
L 374.451444 659.078079 
L 381.325266 657.239596 
L 388.199088 655.186394 
L 395.07291 652.920547 
L 401.946732 650.444384 
L 408.820553 647.760486 
L 415.694375 644.871685 
L 422.568197 641.781056 
L 429.442019 638.491919 
L 436.315841 635.007829 
L 443.189663 631.332578 
L 450.063484 627.470188 
L 456.937306 623.424904 
L 463.811128 619.201195 
L 474.121861 612.54139 
L 484.432593 605.507415 
L 494.743326 598.116999 
L 505.054059 590.388861 
L 515.364792 582.342666 
L 525.675524 573.998984 
L 535.986257 565.379235 
L 546.29699 556.505647 
L 560.044634 544.319153 
L 573.792277 531.778698 
L 587.539921 518.94263 
L 604.724476 502.573494 
L 628.782852 479.268473 
L 673.462694 435.862393 
L 690.647248 419.501529 
L 704.394892 406.678645 
L 718.142536 394.160321 
L 731.890179 382.008297 
L 742.200912 373.170909 
L 752.511645 364.598081 
L 762.822378 356.31374 
L 773.13311 348.340991 
L 783.443843 340.702022 
L 793.754576 333.418003 
L 804.065309 326.508981 
L 810.93913 322.120646 
L 817.812952 317.912623 
L 824.686774 313.889886 
L 831.560596 310.057119 
L 838.434418 306.4187 
L 845.30824 302.978684 
L 852.182061 299.740791 
L 859.055883 296.708389 
L 865.929705 293.884482 
L 872.803527 291.271687 
L 879.677349 288.872226 
L 886.551171 286.687907 
L 893.424992 284.720108 
L 900.298814 282.969758 
L 907.172636 281.437328 
L 914.046458 280.122804 
L 920.92028 279.02568 
L 927.794102 278.144934 
L 934.667923 277.479015 
L 941.541745 277.025824 
L 948.415567 276.782694 
L 955.289389 276.746379 
L 962.163211 276.913026 
L 969.037033 277.278169 
L 975.910854 277.836698 
L 982.784676 278.582851 
L 989.658498 279.510189 
L 996.53232 280.611581 
L 1003.406142 281.87918 
L 1010.279964 283.304409 
L 1020.590696 285.717192 
L 1030.901429 288.42871 
L 1041.212162 291.400149 
L 1051.522894 294.588483 
L 1065.270538 299.094436 
L 1079.018182 303.776315 
L 1079.018182 303.776315 
" style="fill:none;stroke:#b3de69;stroke-linecap:square;"/>
   </g>
   <g id="line2d_8">
    <path clip-path="url(#p552d676214)" d="M 51.381818 531.708573 
L 78.877106 553.45005 
L 96.06166 566.748998 
L 109.809304 577.105543 
L 123.556947 587.132902 
L 133.86768 594.396378 
L 144.178413 601.409179 
L 154.489146 608.145363 
L 164.799878 614.580291 
L 175.110611 620.690646 
L 185.421344 626.454456 
L 195.732077 631.851113 
L 202.605898 635.23536 
L 209.47972 638.442502 
L 216.353542 641.467467 
L 223.227364 644.30546 
L 230.101186 646.951969 
L 236.975008 649.402761 
L 243.848829 651.653891 
L 250.722651 653.701694 
L 257.596473 655.542794 
L 264.470295 657.174097 
L 271.344117 658.592798 
L 278.217939 659.796375 
L 285.09176 660.782596 
L 291.965582 661.549511 
L 298.839404 662.095458 
L 305.713226 662.419059 
L 312.587048 662.519221 
L 319.46087 662.395135 
L 326.334691 662.046271 
L 333.208513 661.472385 
L 340.082335 660.673508 
L 346.956157 659.649952 
L 353.829979 658.402303 
L 360.703801 656.931422 
L 367.577622 655.238442 
L 374.451444 653.324765 
L 381.325266 651.192062 
L 388.199088 648.842264 
L 395.07291 646.277567 
L 401.946732 643.500425 
L 408.820553 640.513544 
L 415.694375 637.319885 
L 422.568197 633.922655 
L 429.442019 630.325305 
L 436.315841 626.531526 
L 443.189663 622.545245 
L 450.063484 618.37062 
L 456.937306 614.012038 
L 467.248039 607.139382 
L 477.558772 599.8797 
L 487.869504 592.250513 
L 498.180237 584.270361 
L 508.49097 575.958762 
L 518.801703 567.336163 
L 529.112435 558.423894 
L 539.423168 549.244121 
L 549.733901 539.81979 
L 563.481545 526.91461 
L 577.229188 513.674784 
L 594.413743 496.745718 
L 615.035208 476.033904 
L 683.773427 406.556065 
L 697.52107 393.067201 
L 711.268714 379.864706 
L 725.016358 367.011541 
L 735.32709 357.637963 
L 745.637823 348.520765 
L 755.948556 339.684527 
L 766.259289 331.15305 
L 776.570021 322.94926 
L 786.880754 315.095108 
L 797.191487 307.611467 
L 807.50222 300.518033 
L 814.376041 296.015005 
L 821.249863 291.698728 
L 828.123685 287.574027 
L 834.997507 283.645424 
L 841.871329 279.917123 
L 848.745151 276.392993 
L 855.618972 273.076553 
L 862.492794 269.970962 
L 869.366616 267.078995 
L 876.240438 264.403034 
L 883.11426 261.94505 
L 889.988081 259.706586 
L 896.861903 257.688742 
L 903.735725 255.892159 
L 910.609547 254.317001 
L 917.483369 252.96294 
L 924.357191 251.829135 
L 931.231012 250.914223 
L 938.104834 250.216291 
L 944.978656 249.732869 
L 951.852478 249.460904 
L 958.7263 249.396749 
L 965.600122 249.536137 
L 972.473943 249.874173 
L 979.347765 250.405305 
L 986.221587 251.123313 
L 993.095409 252.021288 
L 999.969231 253.091611 
L 1006.843053 254.325938 
L 1017.153785 256.464836 
L 1027.464518 258.918166 
L 1037.775251 261.647963 
L 1048.085984 264.612077 
L 1061.833627 268.847743 
L 1079.018182 274.422911 
L 1079.018182 274.422911 
" style="fill:none;stroke:#bc82bd;stroke-linecap:square;"/>
   </g>
   <g id="line2d_9">
    <path clip-path="url(#p552d676214)" d="M 51.381818 533.823982 
L 78.877106 554.795315 
L 96.06166 567.60726 
L 109.809304 577.568961 
L 120.120036 584.824219 
L 130.430769 591.8617 
L 140.741502 598.653439 
L 151.052235 605.172784 
L 161.362967 611.394425 
L 171.6737 617.29441 
L 181.984433 622.850168 
L 192.295166 628.04053 
L 199.168988 631.287958 
L 206.042809 634.358677 
L 212.916631 637.247469 
L 219.790453 639.949403 
L 226.664275 642.459834 
L 233.538097 644.774406 
L 240.411919 646.889049 
L 247.28574 648.799985 
L 254.159562 650.503727 
L 261.033384 651.997075 
L 267.907206 653.277122 
L 274.781028 654.341252 
L 281.654849 655.187138 
L 288.528671 655.812745 
L 295.402493 656.216326 
L 302.276315 656.396425 
L 309.150137 656.351872 
L 316.023959 656.081786 
L 322.89778 655.58557 
L 329.771602 654.862914 
L 336.645424 653.91379 
L 343.519246 652.738449 
L 350.393068 651.337424 
L 357.26689 649.711524 
L 364.140711 647.861834 
L 371.014533 645.78971 
L 377.888355 643.496778 
L 384.762177 640.984932 
L 391.635999 638.256328 
L 398.509821 635.313384 
L 405.383642 632.158776 
L 412.257464 628.795433 
L 419.131286 625.226534 
L 426.005108 621.455504 
L 432.87893 617.486011 
L 439.752752 613.32196 
L 446.626573 608.967491 
L 453.500395 604.426971 
L 463.811128 597.277452 
L 474.121861 589.736119 
L 484.432593 581.820459 
L 494.743326 573.548986 
L 505.054059 564.941201 
L 515.364792 556.017542 
L 525.675524 546.79934 
L 535.986257 537.308769 
L 546.29699 527.568792 
L 560.044634 514.235256 
L 573.792277 500.558582 
L 587.539921 486.598718 
L 604.724476 468.844628 
L 628.782852 443.642611 
L 666.588872 403.991705 
L 683.773427 386.263029 
L 697.52107 372.334967 
L 711.268714 358.703109 
L 725.016358 345.430527 
L 735.32709 335.748952 
L 745.637823 326.329393 
L 755.948556 317.196423 
L 766.259289 308.373821 
L 776.570021 299.884475 
L 786.880754 291.750283 
L 797.191487 283.992051 
L 807.50222 276.629394 
L 814.376041 271.94982 
L 821.249863 267.45931 
L 828.123685 263.162655 
L 834.997507 259.064341 
L 841.871329 255.168531 
L 848.745151 251.479054 
L 855.618972 247.999386 
L 862.492794 244.732638 
L 869.366616 241.681538 
L 876.240438 238.848418 
L 883.11426 236.235197 
L 889.988081 233.843364 
L 896.861903 231.673962 
L 903.735725 229.727575 
L 910.609547 228.004308 
L 917.483369 226.50377 
L 924.357191 225.225061 
L 931.231012 224.166752 
L 938.104834 223.326868 
L 944.978656 222.70287 
L 951.852478 222.291641 
L 958.7263 222.089463 
L 965.600122 222.092006 
L 972.473943 222.294301 
L 979.347765 222.69073 
L 986.221587 223.275002 
L 993.095409 224.04014 
L 999.969231 224.978454 
L 1006.843053 226.081531 
L 1017.153785 228.024827 
L 1027.464518 230.283877 
L 1037.775251 232.820487 
L 1048.085984 235.592288 
L 1061.833627 239.572522 
L 1079.018182 244.829299 
L 1079.018182 244.829299 
" style="fill:none;stroke:#ccebc4;stroke-linecap:square;"/>
   </g>
   <g id="line2d_10">
    <path clip-path="url(#p552d676214)" d="M 51.381818 533.674822 
L 78.877106 553.71871 
L 96.06166 565.948357 
L 109.809304 575.441882 
L 120.120036 582.344392 
L 130.430769 589.027612 
L 140.741502 595.463498 
L 151.052235 601.625355 
L 161.362967 607.487859 
L 171.6737 613.02707 
L 181.984433 618.220462 
L 188.858255 621.480118 
L 195.732077 624.570768 
L 202.605898 627.486797 
L 209.47972 630.222879 
L 216.353542 632.773976 
L 223.227364 635.13534 
L 230.101186 637.302514 
L 236.975008 639.271331 
L 243.848829 641.037917 
L 250.722651 642.59869 
L 257.596473 643.95036 
L 264.470295 645.089932 
L 271.344117 646.0147 
L 278.217939 646.722253 
L 285.09176 647.210472 
L 291.965582 647.477528 
L 298.839404 647.521883 
L 305.713226 647.34229 
L 312.587048 646.937788 
L 319.46087 646.307705 
L 326.334691 645.451654 
L 333.208513 644.369532 
L 340.082335 643.061518 
L 346.956157 641.528072 
L 353.829979 639.769931 
L 360.703801 637.788109 
L 367.577622 635.583891 
L 374.451444 633.158835 
L 381.325266 630.514764 
L 388.199088 627.653769 
L 395.07291 624.578198 
L 401.946732 621.29066 
L 408.820553 617.794018 
L 415.694375 614.091384 
L 422.568197 610.186118 
L 429.442019 606.081823 
L 436.315841 601.78234 
L 443.189663 597.291742 
L 450.063484 592.614335 
L 460.374217 585.257922 
L 470.68495 577.507631 
L 480.995683 569.38074 
L 491.306415 560.895556 
L 501.617148 552.071373 
L 511.927881 542.928429 
L 522.238614 533.487857 
L 532.549346 523.771634 
L 542.860079 513.802533 
L 556.607723 500.157776 
L 570.355366 486.16295 
L 584.10301 471.877591 
L 601.287565 453.705716 
L 625.345941 427.897173 
L 666.588872 383.574807 
L 683.773427 365.424198 
L 697.52107 351.165955 
L 711.268714 337.2101 
L 725.016358 323.619331 
L 735.32709 313.702689 
L 745.637823 304.050929 
L 755.948556 294.688435 
L 766.259289 285.638792 
L 776.570021 276.924688 
L 786.880754 268.567814 
L 797.191487 260.588768 
L 807.50222 253.006951 
L 814.376041 248.182083 
L 821.249863 243.546854 
L 828.123685 239.105992 
L 834.997507 234.863918 
L 841.871329 230.824731 
L 848.745151 226.992197 
L 855.618972 223.36973 
L 862.492794 219.960379 
L 869.366616 216.76681 
L 876.240438 213.791296 
L 883.11426 211.035697 
L 889.988081 208.501445 
L 896.861903 206.189528 
L 903.735725 204.100477 
L 910.609547 202.234345 
L 917.483369 200.590693 
L 924.357191 199.168575 
L 931.231012 197.966518 
L 938.104834 196.982505 
L 944.978656 196.213962 
L 951.852478 195.657738 
L 958.7263 195.310084 
L 965.600122 195.166643 
L 972.473943 195.222427 
L 979.347765 195.471798 
L 986.221587 195.908454 
L 993.095409 196.525408 
L 999.969231 197.314969 
L 1006.843053 198.268726 
L 1017.153785 199.987001 
L 1027.464518 202.019832 
L 1037.775251 204.329112 
L 1048.085984 206.872595 
L 1061.833627 210.547149 
L 1079.018182 215.420522 
L 1079.018182 215.420522 
" style="fill:none;stroke:#ffed6f;stroke-linecap:square;"/>
   </g>
   <g id="line2d_11">
    <path clip-path="url(#p552d676214)" d="M 51.381818 531.305441 
L 78.877106 550.264788 
L 96.06166 561.817169 
L 109.809304 570.769631 
L 120.120036 577.267018 
L 130.430769 583.545887 
L 140.741502 589.57839 
L 151.052235 595.338038 
L 161.362967 600.799725 
L 171.6737 605.939746 
L 181.984433 610.735809 
L 188.858255 613.731737 
L 195.732077 616.559668 
L 202.605898 619.214066 
L 209.47972 621.689678 
L 216.353542 623.981544 
L 223.227364 626.08499 
L 230.101186 627.995635 
L 236.975008 629.709389 
L 243.848829 631.222453 
L 250.722651 632.531319 
L 257.596473 633.632772 
L 264.470295 634.523888 
L 271.344117 635.202036 
L 278.217939 635.664874 
L 285.09176 635.910352 
L 291.965582 635.936708 
L 298.839404 635.742472 
L 305.713226 635.326459 
L 312.587048 634.687771 
L 319.46087 633.825796 
L 326.334691 632.740203 
L 333.208513 631.430946 
L 340.082335 629.898256 
L 346.956157 628.142642 
L 353.829979 626.164891 
L 360.703801 623.966059 
L 367.577622 621.547474 
L 374.451444 618.910732 
L 381.325266 616.057692 
L 388.199088 612.990477 
L 395.07291 609.711465 
L 401.946732 606.22329 
L 408.820553 602.528837 
L 415.694375 598.631239 
L 422.568197 594.53387 
L 429.442019 590.240346 
L 436.315841 585.754515 
L 443.189663 581.080457 
L 450.063484 576.222478 
L 460.374217 568.600616 
L 470.68495 560.591345 
L 480.995683 552.211901 
L 491.306415 543.480529 
L 501.617148 534.416444 
L 511.927881 525.039785 
L 522.238614 515.371567 
L 532.549346 505.433633 
L 542.860079 495.248601 
L 556.607723 481.324627 
L 570.355366 467.060098 
L 587.539921 448.840613 
L 608.161386 426.564208 
L 642.530496 388.985449 
L 666.588872 362.801541 
L 683.773427 344.381645 
L 697.52107 329.911564 
L 711.268714 315.746136 
L 725.016358 301.947184 
L 735.32709 291.874785 
L 745.637823 282.067176 
L 755.948556 272.548367 
L 766.259289 263.34157 
L 776.570021 254.469101 
L 786.880754 245.952288 
L 797.191487 237.811369 
L 807.50222 230.065394 
L 814.376041 225.12965 
L 821.249863 220.38228 
L 828.123685 215.827917 
L 834.997507 211.470888 
L 841.871329 207.315205 
L 848.745151 203.364548 
L 855.618972 199.622246 
L 862.492794 196.091272 
L 869.366616 192.774219 
L 876.240438 189.673289 
L 883.11426 186.790278 
L 889.988081 184.126557 
L 896.861903 181.683063 
L 903.735725 179.460277 
L 910.609547 177.45821 
L 917.483369 175.676387 
L 924.357191 174.113834 
L 931.231012 172.769055 
L 938.104834 171.64002 
L 944.978656 170.724147 
L 951.852478 170.018285 
L 958.7263 169.518699 
L 965.600122 169.221047 
L 972.473943 169.120369 
L 979.347765 169.211066 
L 986.221587 169.486882 
L 993.095409 169.940887 
L 999.969231 170.565461 
L 1006.843053 171.352269 
L 1017.153785 172.816645 
L 1027.464518 174.591728 
L 1037.775251 176.639831 
L 1048.085984 178.919193 
L 1061.833627 182.237979 
L 1079.018182 186.66302 
L 1079.018182 186.66302 
" style="fill:none;stroke:#8dd3c7;stroke-linecap:square;"/>
   </g>
   <g id="line2d_12">
    <path clip-path="url(#p552d676214)" d="M 51.381818 526.811231 
L 78.877106 544.532538 
L 96.06166 555.31507 
L 109.809304 563.655625 
L 120.120036 569.697145 
L 130.430769 575.523303 
L 140.741502 581.106724 
L 151.052235 586.421391 
L 161.362967 591.44266 
L 171.6737 596.147278 
L 181.984433 600.513398 
L 188.858255 603.225944 
L 195.732077 605.773239 
L 202.605898 608.149865 
L 209.47972 610.350692 
L 216.353542 612.370872 
L 223.227364 614.205848 
L 230.101186 615.851347 
L 236.975008 617.303383 
L 243.848829 618.55826 
L 250.722651 619.612569 
L 257.596473 620.463188 
L 264.470295 621.107285 
L 271.344117 621.542311 
L 278.217939 621.766008 
L 285.09176 621.776403 
L 291.965582 621.571805 
L 298.839404 621.150812 
L 305.713226 620.5123 
L 312.587048 619.655431 
L 319.46087 618.579645 
L 326.334691 617.284659 
L 333.208513 615.770469 
L 340.082335 614.037343 
L 346.956157 612.085824 
L 353.829979 609.916724 
L 360.703801 607.531121 
L 367.577622 604.93036 
L 374.451444 602.116046 
L 381.325266 599.090045 
L 388.199088 595.854479 
L 395.07291 592.411719 
L 401.946732 588.76439 
L 408.820553 584.915359 
L 415.694375 580.867736 
L 422.568197 576.62487 
L 429.442019 572.19034 
L 436.315841 567.567958 
L 443.189663 562.76176 
L 453.500395 555.217173 
L 463.811128 547.283891 
L 474.121861 538.978232 
L 484.432593 530.317531 
L 494.743326 521.32009 
L 505.054059 512.005144 
L 515.364792 502.392808 
L 525.675524 492.504035 
L 535.986257 482.360564 
L 549.733901 468.478686 
L 563.481545 454.23919 
L 577.229188 439.699146 
L 594.413743 421.191102 
L 615.035208 398.649031 
L 670.025783 338.304868 
L 687.210337 319.843572 
L 700.957981 305.357447 
L 714.705625 291.189354 
L 728.453268 277.399368 
L 738.764001 267.340228 
L 749.074734 257.550594 
L 759.385467 248.053656 
L 769.696199 238.871784 
L 780.006932 230.026437 
L 790.317665 221.538067 
L 800.628398 213.426024 
L 810.93913 205.708453 
L 817.812952 200.790934 
L 824.686774 196.060902 
L 831.560596 191.522714 
L 838.434418 187.180424 
L 845.30824 183.037767 
L 852.182061 179.098144 
L 859.055883 175.364612 
L 865.929705 171.839862 
L 872.803527 168.526213 
L 879.677349 165.425589 
L 886.551171 162.539512 
L 893.424992 159.86908 
L 900.298814 157.414957 
L 907.172636 155.177353 
L 914.046458 153.156013 
L 920.92028 151.350196 
L 927.794102 149.758665 
L 934.667923 148.379667 
L 941.541745 147.210915 
L 948.415567 146.249578 
L 955.289389 145.49226 
L 962.163211 144.93498 
L 969.037033 144.573165 
L 975.910854 144.401622 
L 982.784676 144.414528 
L 989.658498 144.605411 
L 996.53232 144.967129 
L 1003.406142 145.491858 
L 1013.716874 146.565745 
L 1024.027607 147.955206 
L 1034.33834 149.624611 
L 1044.649073 151.534401 
L 1054.959805 153.640947 
L 1068.707449 156.672418 
L 1079.018182 159.044438 
L 1079.018182 159.044438 
" style="fill:none;stroke:#feffb3;stroke-linecap:square;"/>
   </g>
   <g id="line2d_13">
    <path clip-path="url(#p552d676214)" d="M 51.381818 520.332489 
L 78.877106 536.668931 
L 96.06166 546.593288 
L 109.809304 554.254577 
L 120.120036 559.792156 
L 130.430769 565.119967 
L 140.741502 570.211398 
L 151.052235 575.041167 
L 161.362967 579.58534 
L 171.6737 583.821345 
L 181.984433 587.727987 
L 188.858255 590.139598 
L 195.732077 592.390469 
L 202.605898 594.475355 
L 209.47972 596.389288 
L 216.353542 598.127577 
L 223.227364 599.685814 
L 230.101186 601.059869 
L 236.975008 602.245893 
L 243.848829 603.240317 
L 250.722651 604.039855 
L 257.596473 604.641498 
L 264.470295 605.042519 
L 271.344117 605.240472 
L 278.217939 605.233188 
L 285.09176 605.018778 
L 291.965582 604.595628 
L 298.839404 603.962403 
L 305.713226 603.118042 
L 312.587048 602.061757 
L 319.46087 600.793034 
L 326.334691 599.311629 
L 333.208513 597.617564 
L 340.082335 595.71113 
L 346.956157 593.592883 
L 353.829979 591.263639 
L 360.703801 588.724476 
L 367.577622 585.976726 
L 374.451444 583.021977 
L 381.325266 579.862068 
L 388.199088 576.499086 
L 395.07291 572.935364 
L 401.946732 569.173472 
L 408.820553 565.216224 
L 415.694375 561.066664 
L 422.568197 556.728066 
L 429.442019 552.203933 
L 436.315841 547.497987 
L 446.626573 540.106848 
L 456.937306 532.329741 
L 467.248039 524.181903 
L 477.558772 515.679574 
L 487.869504 506.839962 
L 498.180237 497.681199 
L 508.49097 488.222298 
L 518.801703 478.483109 
L 529.112435 468.484274 
L 542.860079 454.785656 
L 556.607723 440.716115 
L 570.355366 426.330195 
L 587.539921 407.988775 
L 608.161386 385.602298 
L 676.899605 310.537834 
L 694.084159 292.281225 
L 707.831803 277.987426 
L 721.579447 264.034335 
L 731.890179 253.8277 
L 742.200912 243.868608 
L 752.511645 234.179975 
L 762.822378 224.783981 
L 773.13311 215.701974 
L 783.443843 206.954387 
L 793.754576 198.56064 
L 804.065309 190.539051 
L 814.376041 182.906737 
L 821.249863 178.042661 
L 828.123685 173.363002 
L 834.997507 168.871818 
L 841.871329 164.572864 
L 848.745151 160.469579 
L 855.618972 156.565073 
L 862.492794 152.862111 
L 869.366616 149.363101 
L 876.240438 146.070078 
L 883.11426 142.984692 
L 889.988081 140.108192 
L 896.861903 137.441412 
L 903.735725 134.984754 
L 910.609547 132.738176 
L 917.483369 130.701176 
L 924.357191 128.872775 
L 931.231012 127.251504 
L 938.104834 125.835386 
L 944.978656 124.621924 
L 951.852478 123.60808 
L 958.7263 122.790263 
L 965.600122 122.164311 
L 972.473943 121.725474 
L 979.347765 121.468399 
L 986.221587 121.387114 
L 993.095409 121.475008 
L 999.969231 121.724817 
L 1010.279964 122.385572 
L 1020.590696 123.362911 
L 1030.901429 124.623507 
L 1041.212162 126.13028 
L 1051.522894 127.842257 
L 1065.270538 130.365723 
L 1079.018182 133.055253 
L 1079.018182 133.055253 
" style="fill:none;stroke:#bfbbd9;stroke-linecap:square;"/>
   </g>
   <g id="line2d_14">
    <path clip-path="url(#p552d676214)" d="M 51.381818 512.048441 
L 78.877106 526.862637 
L 96.06166 535.846424 
L 109.809304 542.765854 
L 120.120036 547.755008 
L 130.430769 552.542445 
L 140.741502 557.1026 
L 151.052235 561.411195 
L 161.362967 565.445251 
L 171.6737 569.183105 
L 181.984433 572.604422 
L 192.295166 575.690205 
L 199.168988 577.552214 
L 206.042809 579.25233 
L 212.916631 580.785924 
L 219.790453 582.14864 
L 226.664275 583.336389 
L 233.538097 584.345353 
L 240.411919 585.171981 
L 247.28574 585.812997 
L 254.159562 586.265392 
L 261.033384 586.526426 
L 267.907206 586.593629 
L 274.781028 586.464801 
L 281.654849 586.138008 
L 288.528671 585.611585 
L 295.402493 584.884131 
L 302.276315 583.954512 
L 309.150137 582.821855 
L 316.023959 581.485553 
L 322.89778 579.945256 
L 329.771602 578.200874 
L 336.645424 576.252575 
L 343.519246 574.10078 
L 350.393068 571.746165 
L 357.26689 569.189654 
L 364.140711 566.43242 
L 371.014533 563.475881 
L 377.888355 560.321697 
L 384.762177 556.971768 
L 391.635999 553.42823 
L 398.509821 549.693453 
L 405.383642 545.770035 
L 412.257464 541.660802 
L 419.131286 537.3688 
L 426.005108 532.897297 
L 436.315841 525.861149 
L 446.626573 518.441634 
L 456.937306 510.652419 
L 467.248039 502.508164 
L 477.558772 494.024497 
L 487.869504 485.217964 
L 498.180237 476.106002 
L 508.49097 466.706886 
L 518.801703 457.039695 
L 529.112435 447.124262 
L 542.860079 433.553132 
L 556.607723 419.627779 
L 570.355366 405.400582 
L 587.539921 387.274578 
L 608.161386 365.165534 
L 676.899605 291.072706 
L 694.084159 273.045086 
L 707.831803 258.923678 
L 721.579447 245.130724 
L 735.32709 231.72123 
L 745.637823 221.947879 
L 755.948556 212.441962 
L 766.259289 203.224464 
L 776.570021 194.315549 
L 786.880754 185.734466 
L 797.191487 177.499465 
L 807.50222 169.627705 
L 817.812952 162.135159 
L 828.123685 155.036526 
L 834.997507 150.529585 
L 841.871329 146.207258 
L 848.745151 142.072831 
L 855.618972 138.129274 
L 862.492794 134.379227 
L 869.366616 130.824987 
L 876.240438 127.468493 
L 883.11426 124.311315 
L 889.988081 121.354639 
L 896.861903 118.59925 
L 903.735725 116.045524 
L 910.609547 113.693407 
L 917.483369 111.542405 
L 924.357191 109.591569 
L 931.231012 107.839477 
L 938.104834 106.284224 
L 944.978656 104.923401 
L 951.852478 103.754085 
L 958.7263 102.772822 
L 965.600122 101.975611 
L 972.473943 101.357887 
L 979.347765 100.914508 
L 986.221587 100.639736 
L 993.095409 100.527226 
L 999.969231 100.570003 
L 1010.279964 100.90849 
L 1020.590696 101.550573 
L 1030.901429 102.464276 
L 1041.212162 103.61403 
L 1051.522894 104.960537 
L 1065.270538 106.98678 
L 1079.018182 109.172228 
L 1079.018182 109.172228 
" style="fill:none;stroke:#fa8174;stroke-linecap:square;"/>
   </g>
   <g id="line2d_15">
    <path clip-path="url(#p552d676214)" d="M 51.381818 502.171441 
L 78.877106 515.337912 
L 96.06166 523.306141 
L 109.809304 529.427014 
L 123.556947 535.253261 
L 133.86768 539.393474 
L 144.178413 543.310408 
L 154.489146 546.981461 
L 164.799878 550.385268 
L 175.110611 553.501715 
L 185.421344 556.311954 
L 195.732077 558.798405 
L 202.605898 560.268057 
L 209.47972 561.582022 
L 216.353542 562.736043 
L 223.227364 563.72612 
L 230.101186 564.548507 
L 236.975008 565.199713 
L 243.848829 565.676506 
L 250.722651 565.975908 
L 257.596473 566.095197 
L 264.470295 566.031906 
L 271.344117 565.783824 
L 278.217939 565.348994 
L 285.09176 564.725713 
L 291.965582 563.912531 
L 298.839404 562.908247 
L 305.713226 561.711914 
L 312.587048 560.322833 
L 319.46087 558.740553 
L 326.334691 556.964868 
L 333.208513 554.995817 
L 340.082335 552.833682 
L 346.956157 550.478986 
L 353.829979 547.932488 
L 360.703801 545.195187 
L 367.577622 542.268312 
L 374.451444 539.153325 
L 381.325266 535.851915 
L 388.199088 532.365998 
L 395.07291 528.697711 
L 401.946732 524.849411 
L 408.820553 520.823672 
L 419.131286 514.458513 
L 429.442019 507.710711 
L 439.752752 500.591573 
L 450.063484 493.113407 
L 460.374217 485.28949 
L 470.68495 477.134033 
L 480.995683 468.662144 
L 491.306415 459.889799 
L 501.617148 450.833795 
L 511.927881 441.511717 
L 522.238614 431.941893 
L 535.986257 418.829733 
L 549.733901 405.357945 
L 563.481545 391.575312 
L 580.666099 373.986908 
L 601.287565 352.487328 
L 632.219763 319.811961 
L 663.151961 287.183886 
L 683.773427 265.771074 
L 700.957981 248.292625 
L 714.705625 234.625378 
L 728.453268 221.295889 
L 738.764001 211.551375 
L 749.074734 202.046776 
L 759.385467 192.80245 
L 769.696199 183.838033 
L 780.006932 175.172346 
L 790.317665 166.823322 
L 800.628398 158.807913 
L 810.93913 151.142011 
L 821.249863 143.840356 
L 831.560596 136.916448 
L 841.871329 130.382453 
L 848.745151 126.248442 
L 855.618972 122.295345 
L 862.492794 118.525662 
L 869.366616 114.941566 
L 876.240438 111.544896 
L 883.11426 108.337136 
L 889.988081 105.319407 
L 896.861903 102.492454 
L 903.735725 99.856629 
L 910.609547 97.41188 
L 917.483369 95.157737 
L 924.357191 93.093299 
L 931.231012 91.217217 
L 938.104834 89.527683 
L 944.978656 88.022413 
L 951.852478 86.698636 
L 958.7263 85.553077 
L 965.600122 84.581942 
L 972.473943 83.780905 
L 979.347765 83.145091 
L 986.221587 82.669062 
L 993.095409 82.346802 
L 1003.406142 82.137105 
L 1013.716874 82.233479 
L 1024.027607 82.607825 
L 1034.33834 83.228716 
L 1044.649073 84.061281 
L 1058.396716 85.433658 
L 1075.581271 87.425948 
L 1079.018182 87.843683 
L 1079.018182 87.843683 
" style="fill:none;stroke:#81b1d2;stroke-linecap:square;"/>
   </g>
   <g id="line2d_16">
    <path clip-path="url(#p552d676214)" d="M 51.381818 490.941329 
L 78.877106 502.348648 
L 96.06166 509.235022 
L 109.809304 514.507504 
L 123.556947 519.505171 
L 133.86768 523.039351 
L 144.178413 526.365216 
L 154.489146 529.461654 
L 164.799878 532.308706 
L 175.110611 534.887577 
L 185.421344 537.180647 
L 195.732077 539.171481 
L 206.042809 540.844834 
L 212.916631 541.77704 
L 219.790453 542.558013 
L 226.664275 543.184125 
L 233.538097 543.65199 
L 240.411919 543.958457 
L 247.28574 544.100616 
L 254.159562 544.075796 
L 261.033384 543.881563 
L 267.907206 543.515722 
L 274.781028 542.976315 
L 281.654849 542.261621 
L 288.528671 541.370157 
L 295.402493 540.300672 
L 302.276315 539.052154 
L 309.150137 537.62382 
L 316.023959 536.015122 
L 322.89778 534.225742 
L 329.771602 532.25559 
L 336.645424 530.104804 
L 343.519246 527.773749 
L 350.393068 525.263011 
L 357.26689 522.573402 
L 364.140711 519.705948 
L 371.014533 516.661897 
L 377.888355 513.442708 
L 384.762177 510.050056 
L 391.635999 506.485823 
L 401.946732 500.822382 
L 412.257464 494.785536 
L 422.568197 488.384197 
L 432.87893 481.628259 
L 443.189663 474.52857 
L 453.500395 467.096902 
L 463.811128 459.345925 
L 474.121861 451.289174 
L 484.432593 442.941012 
L 494.743326 434.316602 
L 505.054059 425.431867 
L 515.364792 416.303454 
L 529.112435 403.783228 
L 542.860079 390.903521 
L 556.607723 377.709033 
L 573.792277 360.844041 
L 590.976832 343.653507 
L 615.035208 319.224461 
L 670.025783 263.174579 
L 687.210337 245.996059 
L 704.394892 229.152823 
L 718.142536 215.985826 
L 731.890179 203.145517 
L 745.637823 190.679542 
L 755.948556 181.603399 
L 766.259289 172.782289 
L 776.570021 164.234093 
L 786.880754 155.975887 
L 797.191487 148.023863 
L 807.50222 140.393244 
L 817.812952 133.098208 
L 828.123685 126.151801 
L 838.434418 119.565854 
L 848.745151 113.350896 
L 859.055883 107.516067 
L 865.929705 103.84121 
L 872.803527 100.340623 
L 879.677349 97.015869 
L 886.551171 93.868178 
L 893.424992 90.898433 
L 900.298814 88.107158 
L 907.172636 85.494503 
L 914.046458 83.060236 
L 920.92028 80.803725 
L 927.794102 78.72393 
L 934.667923 76.819385 
L 941.541745 75.088187 
L 948.415567 73.527984 
L 955.289389 72.135957 
L 962.163211 70.908812 
L 969.037033 69.842761 
L 975.910854 68.933511 
L 986.221587 67.852966 
L 996.53232 67.09576 
L 1006.843053 66.640566 
L 1017.153785 66.463138 
L 1027.464518 66.536189 
L 1037.775251 66.829283 
L 1051.522894 67.503629 
L 1065.270538 68.419562 
L 1079.018182 69.476592 
L 1079.018182 69.476592 
" style="fill:none;stroke:#fdb462;stroke-linecap:square;"/>
   </g>
   <g id="line2d_17">
    <path clip-path="url(#p552d676214)" d="M 51.381818 478.619954 
L 78.877106 488.172582 
L 96.06166 493.920591 
L 109.809304 498.302537 
L 123.556947 502.432985 
L 133.86768 505.334853 
L 144.178413 508.045968 
L 154.489146 510.546946 
L 164.799878 512.819448 
L 175.110611 514.846195 
L 185.421344 516.610978 
L 195.732077 518.098663 
L 206.042809 519.295208 
L 216.353542 520.187659 
L 226.664275 520.764163 
L 236.975008 521.013967 
L 243.848829 520.994194 
L 250.722651 520.822324 
L 257.596473 520.495991 
L 264.470295 520.013044 
L 271.344117 519.371553 
L 278.217939 518.569802 
L 285.09176 517.606296 
L 291.965582 516.479751 
L 298.839404 515.189103 
L 305.713226 513.733501 
L 312.587048 512.112306 
L 319.46087 510.325094 
L 326.334691 508.37165 
L 333.208513 506.25197 
L 340.082335 503.966257 
L 346.956157 501.514921 
L 353.829979 498.898578 
L 360.703801 496.118044 
L 367.577622 493.17434 
L 377.888355 488.455553 
L 388.199088 483.37735 
L 398.509821 477.945642 
L 408.820553 472.167296 
L 419.131286 466.050113 
L 429.442019 459.60281 
L 439.752752 452.834989 
L 450.063484 445.757117 
L 460.374217 438.380497 
L 470.68495 430.71724 
L 480.995683 422.780237 
L 491.306415 414.583125 
L 501.617148 406.140258 
L 511.927881 397.46667 
L 525.675524 385.570177 
L 539.423168 373.330298 
L 553.170812 360.787635 
L 570.355366 344.74794 
L 587.539921 328.386668 
L 608.161386 308.453265 
L 680.336516 238.333235 
L 697.52107 222.074141 
L 711.268714 209.320753 
L 725.016358 196.842759 
L 738.764001 184.684805 
L 752.511645 172.890076 
L 762.822378 164.307398 
L 773.13311 155.969129 
L 783.443843 147.891298 
L 793.754576 140.089147 
L 804.065309 132.577054 
L 814.376041 125.368464 
L 824.686774 118.475808 
L 834.997507 111.910426 
L 845.30824 105.682488 
L 855.618972 99.800915 
L 865.929705 94.273292 
L 876.240438 89.105792 
L 886.551171 84.303084 
L 893.424992 81.30553 
L 900.298814 78.472014 
L 907.172636 75.802695 
L 914.046458 73.297381 
L 920.92028 70.95551 
L 927.794102 68.776144 
L 934.667923 66.757954 
L 941.541745 64.899208 
L 948.415567 63.197757 
L 955.289389 61.651027 
L 965.600122 59.61431 
L 975.910854 57.906712 
L 986.221587 56.513731 
L 996.53232 55.418372 
L 1006.843053 54.601041 
L 1017.153785 54.039447 
L 1027.464518 53.708497 
L 1037.775251 53.580188 
L 1051.522894 53.67027 
L 1065.270538 53.98289 
L 1079.018182 54.425499 
L 1079.018182 54.425499 
" style="fill:none;stroke:#b3de69;stroke-linecap:square;"/>
   </g>
   <g id="line2d_18">
    <path clip-path="url(#p552d676214)" d="M 51.381818 465.485872 
L 82.314016 474.035704 
L 99.498571 478.552377 
L 113.246215 481.958232 
L 126.993858 485.127438 
L 140.741502 488.01474 
L 151.052235 489.969592 
L 161.362967 491.725132 
L 171.6737 493.265464 
L 181.984433 494.575639 
L 192.295166 495.641657 
L 202.605898 496.450484 
L 212.916631 496.99005 
L 223.227364 497.249266 
L 233.538097 497.218018 
L 243.848829 496.88718 
L 254.159562 496.24861 
L 264.470295 495.295155 
L 274.781028 494.020648 
L 285.09176 492.419907 
L 295.402493 490.488734 
L 305.713226 488.223909 
L 316.023959 485.623185 
L 326.334691 482.685281 
L 336.645424 479.409875 
L 346.956157 475.797594 
L 357.26689 471.85 
L 367.577622 467.569586 
L 377.888355 462.959755 
L 388.199088 458.024808 
L 398.509821 452.769931 
L 408.820553 447.201173 
L 419.131286 441.325431 
L 429.442019 435.150428 
L 439.752752 428.684694 
L 450.063484 421.937544 
L 460.374217 414.919049 
L 470.68495 407.640019 
L 480.995683 400.11197 
L 491.306415 392.347101 
L 501.617148 384.358261 
L 515.364792 373.38145 
L 529.112435 362.064042 
L 542.860079 350.441318 
L 556.607723 338.550139 
L 573.792277 323.367103 
L 594.413743 304.782193 
L 618.472119 282.772006 
L 673.462694 232.322007 
L 694.084159 213.783364 
L 711.268714 198.658655 
L 725.016358 186.829758 
L 738.764001 175.285564 
L 752.511645 164.065257 
L 766.259289 153.206464 
L 776.570021 145.321229 
L 786.880754 137.673874 
L 797.191487 130.278018 
L 807.50222 123.14648 
L 817.812952 116.291216 
L 828.123685 109.723248 
L 838.434418 103.452592 
L 848.745151 97.488183 
L 859.055883 91.837804 
L 869.366616 86.508011 
L 879.677349 81.504055 
L 889.988081 76.829805 
L 900.298814 72.487665 
L 910.609547 68.478502 
L 920.92028 64.801555 
L 931.231012 61.454359 
L 941.541745 58.432654 
L 951.852478 55.730308 
L 962.163211 53.33922 
L 972.473943 51.24924 
L 982.784676 49.448076 
L 993.095409 47.921201 
L 1003.406142 46.651766 
L 1013.716874 45.620503 
L 1024.027607 44.805628 
L 1034.33834 44.182753 
L 1048.085984 43.603679 
L 1061.833627 43.245406 
L 1079.018182 42.983255 
L 1079.018182 42.983255 
" style="fill:none;stroke:#bc82bd;stroke-linecap:square;"/>
   </g>
   <g id="line2d_19">
    <path clip-path="url(#p552d676214)" d="M 51.381818 451.829197 
L 82.314016 458.140714 
L 99.498571 461.445038 
L 113.246215 463.908477 
L 126.993858 466.166361 
L 140.741502 468.17913 
L 154.489146 469.909616 
L 164.799878 471.001262 
L 175.110611 471.900836 
L 185.421344 472.595427 
L 195.732077 473.072945 
L 206.042809 473.322126 
L 216.353542 473.33254 
L 226.664275 473.094599 
L 236.975008 472.599563 
L 247.28574 471.839541 
L 257.596473 470.807501 
L 267.907206 469.497266 
L 278.217939 467.903516 
L 288.528671 466.021792 
L 298.839404 463.848487 
L 309.150137 461.380851 
L 319.46087 458.616982 
L 329.771602 455.555822 
L 340.082335 452.197153 
L 350.393068 448.541587 
L 360.703801 444.590559 
L 371.014533 440.346314 
L 381.325266 435.8119 
L 391.635999 430.991156 
L 401.946732 425.888693 
L 412.257464 420.509885 
L 422.568197 414.860852 
L 432.87893 408.948442 
L 443.189663 402.780212 
L 453.500395 396.364412 
L 463.811128 389.709959 
L 474.121861 382.826422 
L 484.432593 375.723993 
L 498.180237 365.93233 
L 511.927881 355.797952 
L 525.675524 345.349734 
L 539.423168 334.618141 
L 553.170812 323.6351 
L 570.355366 309.60348 
L 587.539921 295.298556 
L 611.598297 274.946158 
L 687.210337 210.62705 
L 704.394892 196.389556 
L 721.579447 182.450108 
L 735.32709 171.560878 
L 749.074734 160.942978 
L 762.822378 150.630267 
L 776.570021 140.655082 
L 786.880754 133.413661 
L 797.191487 126.391505 
L 807.50222 119.600085 
L 817.812952 113.050115 
L 828.123685 106.751487 
L 838.434418 100.713209 
L 848.745151 94.94334 
L 859.055883 89.448921 
L 869.366616 84.235914 
L 879.677349 79.309125 
L 889.988081 74.672141 
L 900.298814 70.327256 
L 910.609547 66.2754 
L 920.92028 62.516063 
L 931.231012 59.047224 
L 941.541745 55.865273 
L 951.852478 52.964936 
L 962.163211 50.339193 
L 972.473943 47.979203 
L 982.784676 45.874223 
L 993.095409 44.011523 
L 1003.406142 42.376304 
L 1013.716874 40.95162 
L 1024.027607 39.718281 
L 1037.775251 38.333958 
L 1051.522894 37.193592 
L 1068.707449 36.010328 
L 1079.018182 35.373583 
L 1079.018182 35.373583 
" style="fill:none;stroke:#ccebc4;stroke-linecap:square;"/>
   </g>
   <g id="line2d_20">
    <path clip-path="url(#p552d676214)" d="M 51.381818 437.946629 
L 85.750927 442.402813 
L 102.935482 444.435911 
L 120.120036 446.241923 
L 133.86768 447.47775 
L 147.615324 448.492537 
L 161.362967 449.255779 
L 175.110611 449.738964 
L 185.421344 449.901573 
L 195.732077 449.881338 
L 206.042809 449.668549 
L 216.353542 449.254176 
L 226.664275 448.629888 
L 236.975008 447.78805 
L 247.28574 446.721734 
L 257.596473 445.424725 
L 267.907206 443.891521 
L 278.217939 442.117338 
L 288.528671 440.098113 
L 298.839404 437.830501 
L 309.150137 435.311879 
L 319.46087 432.540341 
L 329.771602 429.514697 
L 340.082335 426.234469 
L 350.393068 422.699885 
L 360.703801 418.911877 
L 371.014533 414.872068 
L 381.325266 410.582769 
L 391.635999 406.046971 
L 401.946732 401.268327 
L 412.257464 396.25115 
L 422.568197 391.000395 
L 432.87893 385.521647 
L 443.189663 379.821108 
L 453.500395 373.90558 
L 463.811128 367.782446 
L 474.121861 361.459659 
L 487.869504 352.733468 
L 501.617148 343.689096 
L 515.364792 334.349711 
L 529.112435 324.739964 
L 542.860079 314.885885 
L 560.044634 302.266398 
L 577.229188 289.36373 
L 597.850654 273.588971 
L 625.345941 252.233711 
L 683.773427 206.739749 
L 704.394892 191.011393 
L 721.579447 178.165566 
L 738.764001 165.622665 
L 752.511645 155.846347 
L 766.259289 146.330973 
L 780.006932 137.104328 
L 793.754576 128.192664 
L 807.50222 119.620484 
L 817.812952 113.42777 
L 828.123685 107.447434 
L 838.434418 101.687427 
L 848.745151 96.154886 
L 859.055883 90.856082 
L 869.366616 85.796357 
L 879.677349 80.980068 
L 889.988081 76.410522 
L 900.298814 72.089915 
L 910.609547 68.019269 
L 920.92028 64.198367 
L 931.231012 60.625687 
L 941.541745 57.298336 
L 951.852478 54.211984 
L 962.163211 51.36079 
L 972.473943 48.737339 
L 982.784676 46.332564 
L 993.095409 44.135681 
L 1003.406142 42.134108 
L 1013.716874 40.313399 
L 1027.464518 38.138511 
L 1041.212162 36.211312 
L 1058.396716 34.071986 
L 1079.018182 31.745455 
L 1079.018182 31.745455 
" style="fill:none;stroke:#ffed6f;stroke-linecap:square;"/>
   </g>
   <g id="line2d_21">
    <path clip-path="url(#p552d676214)" d="M 51.381818 424.136642 
L 89.187838 426.207107 
L 109.809304 427.104924 
L 126.993858 427.636427 
L 144.178413 427.914601 
L 157.926057 427.921477 
L 171.6737 427.710949 
L 185.421344 427.2609 
L 199.168988 426.550779 
L 212.916631 425.561657 
L 223.227364 424.626269 
L 233.538097 423.517539 
L 243.848829 422.229356 
L 254.159562 420.756167 
L 264.470295 419.092977 
L 274.781028 417.235359 
L 285.09176 415.179457 
L 295.402493 412.921987 
L 305.713226 410.460243 
L 316.023959 407.792098 
L 326.334691 404.916002 
L 336.645424 401.830982 
L 346.956157 398.536644 
L 357.26689 395.033166 
L 367.577622 391.321299 
L 377.888355 387.402358 
L 388.199088 383.27822 
L 398.509821 378.951318 
L 408.820553 374.424631 
L 419.131286 369.701678 
L 429.442019 364.786508 
L 443.189663 357.941916 
L 456.937306 350.77602 
L 470.68495 343.302609 
L 484.432593 335.536972 
L 498.180237 327.495836 
L 511.927881 319.197295 
L 525.675524 310.660742 
L 542.860079 299.686849 
L 560.044634 288.41606 
L 577.229188 276.893582 
L 597.850654 262.801252 
L 625.345941 243.702094 
L 697.52107 193.362561 
L 718.142536 179.325682 
L 735.32709 167.868366 
L 752.511645 156.682774 
L 766.259289 147.962303 
L 780.006932 139.469977 
L 793.754576 131.228023 
L 807.50222 123.257269 
L 821.249863 115.576944 
L 834.997507 108.204491 
L 848.745151 101.15536 
L 859.055883 96.088754 
L 869.366616 91.216235 
L 879.677349 86.5417 
L 889.988081 82.068184 
L 900.298814 77.797799 
L 910.609547 73.731687 
L 920.92028 69.86996 
L 931.231012 66.211644 
L 941.541745 62.754624 
L 951.852478 59.495584 
L 962.163211 56.42995 
L 972.473943 53.551827 
L 982.784676 50.853941 
L 996.53232 47.521842 
L 1010.279964 44.469633 
L 1024.027607 41.667428 
L 1037.775251 39.080035 
L 1054.959805 36.085197 
L 1079.018182 32.169301 
L 1079.018182 32.169301 
" style="fill:none;stroke:#8dd3c7;stroke-linecap:square;"/>
   </g>
   <g id="line2d_22">
    <path clip-path="url(#p552d676214)" d="M 51.381818 410.694842 
L 92.624749 409.87712 
L 116.683126 409.163717 
L 137.304591 408.307414 
L 154.489146 407.370685 
L 171.6737 406.192783 
L 185.421344 405.054204 
L 199.168988 403.723736 
L 212.916631 402.18642 
L 226.664275 400.428423 
L 240.411919 398.437086 
L 254.159562 396.200965 
L 267.907206 393.709872 
L 281.654849 390.954907 
L 295.402493 387.928484 
L 309.150137 384.62436 
L 322.89778 381.037649 
L 336.645424 377.16484 
L 350.393068 373.003801 
L 364.140711 368.553792 
L 377.888355 363.815454 
L 391.635999 358.790815 
L 405.383642 353.48327 
L 419.131286 347.897575 
L 432.87893 342.03982 
L 446.626573 335.91741 
L 460.374217 329.539035 
L 474.121861 322.914634 
L 487.869504 316.055358 
L 501.617148 308.973526 
L 515.364792 301.682577 
L 532.549346 292.297015 
L 549.733901 282.637978 
L 566.918455 272.738265 
L 587.539921 260.59013 
L 611.598297 246.127953 
L 642.530496 227.240506 
L 704.394892 189.37666 
L 728.453268 174.94985 
L 749.074734 162.849013 
L 766.259289 153.003604 
L 783.443843 143.41491 
L 800.628398 134.117965 
L 814.376041 126.91234 
L 828.123685 119.929407 
L 841.871329 113.182902 
L 855.618972 106.68496 
L 869.366616 100.44594 
L 883.11426 94.474247 
L 896.861903 88.77615 
L 910.609547 83.355601 
L 924.357191 78.214037 
L 938.104834 73.350189 
L 951.852478 68.75988 
L 965.600122 64.435819 
L 979.347765 60.36739 
L 993.095409 56.540439 
L 1006.843053 52.937053 
L 1020.590696 49.535335 
L 1037.775251 45.526589 
L 1058.396716 40.991294 
L 1079.018182 36.635036 
L 1079.018182 36.635036 
" style="fill:none;stroke:#feffb3;stroke-linecap:square;"/>
   </g>
   <g id="line2d_23">
    <path clip-path="url(#p552d676214)" d="M 51.381818 397.909484 
L 102.935482 393.070576 
L 130.430769 390.257826 
L 154.489146 387.559423 
L 175.110611 385.017368 
L 195.732077 382.221637 
L 212.916631 379.670894 
L 230.101186 376.897559 
L 247.28574 373.882858 
L 264.470295 370.609695 
L 281.654849 367.062792 
L 295.402493 364.019151 
L 309.150137 360.785866 
L 322.89778 357.357929 
L 336.645424 353.731239 
L 350.393068 349.902622 
L 364.140711 345.869848 
L 377.888355 341.631649 
L 391.635999 337.187732 
L 405.383642 332.538781 
L 419.131286 327.686464 
L 432.87893 322.633428 
L 446.626573 317.383296 
L 463.811128 310.550548 
L 480.995683 303.428126 
L 498.180237 296.029343 
L 515.364792 288.369703 
L 532.549346 280.466815 
L 549.733901 272.340286 
L 570.355366 262.32362 
L 590.976832 252.056347 
L 615.035208 239.819495 
L 642.530496 225.584865 
L 694.084159 198.575471 
L 731.890179 178.892572 
L 755.948556 166.588606 
L 776.570021 156.252265 
L 797.191487 146.160018 
L 814.376041 137.968384 
L 831.560596 130.000647 
L 848.745151 122.277952 
L 865.929705 114.818678 
L 883.11426 107.638018 
L 900.298814 100.747557 
L 914.046458 95.449337 
L 927.794102 90.343542 
L 941.541745 85.429959 
L 958.7263 79.554436 
L 975.910854 73.965546 
L 993.095409 68.647272 
L 1010.279964 63.576861 
L 1027.464518 58.724274 
L 1048.085984 53.134773 
L 1075.581271 45.940755 
L 1079.018182 45.051902 
L 1079.018182 45.051902 
" style="fill:none;stroke:#bfbbd9;stroke-linecap:square;"/>
   </g>
   <g id="line2d_24">
    <path clip-path="url(#p552d676214)" d="M 51.381818 386.057164 
L 130.430769 372.950895 
L 168.236789 366.461121 
L 199.168988 360.927094 
L 226.664275 355.772619 
L 250.722651 351.036617 
L 274.781028 346.053204 
L 295.402493 341.559806 
L 316.023959 336.841427 
L 336.645424 331.880979 
L 357.26689 326.663619 
L 377.888355 321.177019 
L 395.07291 316.392188 
L 412.257464 311.409692 
L 429.442019 306.227023 
L 446.626573 300.843202 
L 463.811128 295.258815 
L 480.995683 289.476033 
L 501.617148 282.280226 
L 522.238614 274.813757 
L 542.860079 267.089384 
L 563.481545 259.123012 
L 584.10301 250.933562 
L 608.161386 241.126433 
L 632.219763 231.084432 
L 659.71505 219.376029 
L 694.084159 204.496688 
L 797.191487 159.675913 
L 824.686774 148.046253 
L 848.745151 138.092624 
L 872.803527 128.388779 
L 893.424992 120.295451 
L 914.046458 112.426245 
L 934.667923 104.791739 
L 955.289389 97.396204 
L 975.910854 90.236703 
L 996.53232 83.302151 
L 1020.590696 75.468614 
L 1048.085984 66.791941 
L 1079.018182 57.250144 
L 1079.018182 57.250144 
" style="fill:none;stroke:#fa8174;stroke-linecap:square;"/>
   </g>
   <g id="line2d_25">
    <path clip-path="url(#p552d676214)" d="M 51.381818 375.39867 
L 113.246215 360.955524 
L 154.489146 351.567588 
L 195.732077 342.415375 
L 247.28574 331.232674 
L 343.519246 310.4256 
L 377.888355 302.746692 
L 408.820553 295.613257 
L 436.315841 289.049177 
L 463.811128 282.239289 
L 487.869504 276.056147 
L 511.927881 269.647026 
L 535.986257 263.000218 
L 560.044634 256.10812 
L 584.10301 248.967386 
L 608.161386 241.578996 
L 632.219763 233.948232 
L 656.278139 226.084577 
L 680.336516 218.001526 
L 707.831803 208.517369 
L 735.32709 198.800351 
L 766.259289 187.635286 
L 804.065309 173.734051 
L 859.055883 153.230189 
L 938.104834 123.771008 
L 979.347765 108.639929 
L 1020.590696 93.746392 
L 1068.707449 76.631013 
L 1079.018182 72.984502 
L 1079.018182 72.984502 
" style="fill:none;stroke:#81b1d2;stroke-linecap:square;"/>
   </g>
   <g id="line2d_26">
    <path clip-path="url(#p552d676214)" d="M 51.381818 366.175001 
L 96.06166 352.740458 
L 123.556947 344.707138 
L 147.615324 337.910746 
L 168.236789 332.290398 
L 188.858255 326.876962 
L 209.47972 321.679727 
L 230.101186 316.701658 
L 250.722651 311.940084 
L 271.344117 307.387352 
L 295.402493 302.323555 
L 319.46087 297.502093 
L 346.956157 292.248419 
L 377.888355 286.600567 
L 415.694375 279.955101 
L 518.801703 261.990038 
L 549.733901 256.285607 
L 577.229188 250.972492 
L 601.287565 246.095347 
L 625.345941 240.974419 
L 645.967407 236.37176 
L 666.588872 231.557985 
L 687.210337 226.522156 
L 707.831803 221.255862 
L 728.453268 215.753267 
L 749.074734 210.011143 
L 769.696199 204.028864 
L 790.317665 197.808375 
L 810.93913 191.354142 
L 831.560596 184.673065 
L 852.182061 177.774365 
L 876.240438 169.466166 
L 900.298814 160.898938 
L 924.357191 152.097569 
L 951.852478 141.787824 
L 982.784676 129.923253 
L 1017.153785 116.489714 
L 1065.270538 97.415405 
L 1079.018182 91.93952 
L 1079.018182 91.93952 
" style="fill:none;stroke:#fdb462;stroke-linecap:square;"/>
   </g>
   <g id="line2d_27">
    <path clip-path="url(#p552d676214)" d="M 51.381818 358.603556 
L 89.187838 344.819146 
L 113.246215 336.291904 
L 133.86768 329.234592 
L 151.052235 323.572523 
L 168.236789 318.136287 
L 185.421344 312.945482 
L 202.605898 308.01486 
L 219.790453 303.354633 
L 236.975008 298.970796 
L 254.159562 294.865421 
L 271.344117 291.03696 
L 288.528671 287.48053 
L 305.713226 284.188199 
L 322.89778 281.149258 
L 340.082335 278.350493 
L 357.26689 275.776445 
L 374.451444 273.40966 
L 395.07291 270.815973 
L 415.694375 268.457042 
L 439.752752 265.950151 
L 467.248039 263.329206 
L 505.054059 259.972646 
L 560.044634 255.097437 
L 587.539921 252.442034 
L 611.598297 249.897039 
L 632.219763 247.502808 
L 652.841228 244.87447 
L 670.025783 242.481466 
L 687.210337 239.88536 
L 704.394892 237.07011 
L 721.579447 234.021311 
L 738.764001 230.726295 
L 755.948556 227.174234 
L 773.13311 223.356227 
L 790.317665 219.265382 
L 807.50222 214.896899 
L 824.686774 210.248134 
L 841.871329 205.31866 
L 859.055883 200.11033 
L 876.240438 194.627318 
L 893.424992 188.876163 
L 910.609547 182.865803 
L 927.794102 176.607604 
L 944.978656 170.115376 
L 962.163211 163.40539 
L 982.784676 155.09252 
L 1003.406142 146.530247 
L 1027.464518 136.282221 
L 1054.959805 124.322414 
L 1079.018182 113.736685 
L 1079.018182 113.736685 
" style="fill:none;stroke:#b3de69;stroke-linecap:square;"/>
   </g>
   <g id="line2d_28">
    <path clip-path="url(#p552d676214)" d="M 51.381818 352.874481 
L 85.750927 338.287246 
L 106.372393 329.764954 
L 123.556947 322.884285 
L 140.741502 316.256054 
L 154.489146 311.16269 
L 168.236789 306.274532 
L 181.984433 301.606478 
L 195.732077 297.170853 
L 209.47972 292.97753 
L 223.227364 289.034043 
L 236.975008 285.345695 
L 250.722651 281.91567 
L 264.470295 278.745146 
L 278.217939 275.833398 
L 291.965582 273.177905 
L 305.713226 270.77446 
L 319.46087 268.617266 
L 333.208513 266.699048 
L 346.956157 265.011144 
L 360.703801 263.543612 
L 374.451444 262.285328 
L 388.199088 261.224077 
L 405.383642 260.154394 
L 422.568197 259.34415 
L 439.752752 258.76371 
L 460.374217 258.326407 
L 480.995683 258.118388 
L 508.49097 258.096038 
L 604.724476 258.329892 
L 625.345941 258.043969 
L 642.530496 257.619061 
L 659.71505 256.991133 
L 676.899605 256.130469 
L 694.084159 255.009049 
L 707.831803 253.906546 
L 721.579447 252.607982 
L 735.32709 251.101859 
L 749.074734 249.377664 
L 762.822378 247.425927 
L 776.570021 245.23828 
L 790.317665 242.807518 
L 804.065309 240.127652 
L 817.812952 237.193966 
L 831.560596 234.003071 
L 845.30824 230.552957 
L 859.055883 226.843045 
L 872.803527 222.874234 
L 886.551171 218.648954 
L 900.298814 214.171209 
L 914.046458 209.446627 
L 927.794102 204.482499 
L 941.541745 199.287828 
L 955.289389 193.873367 
L 969.037033 188.25166 
L 986.221587 180.955162 
L 1003.406142 173.389632 
L 1020.590696 165.591932 
L 1041.212162 155.987199 
L 1068.707449 142.896414 
L 1079.018182 137.943388 
L 1079.018182 137.943388 
" style="fill:none;stroke:#bc82bd;stroke-linecap:square;"/>
   </g>
   <g id="line2d_29">
    <path clip-path="url(#p552d676214)" d="M 51.381818 349.14719 
L 85.750927 332.67603 
L 102.935482 324.657551 
L 120.120036 316.882858 
L 133.86768 310.881133 
L 147.615324 305.103922 
L 161.362967 299.575911 
L 175.110611 294.31847 
L 188.858255 289.349784 
L 202.605898 284.684973 
L 212.916631 281.393219 
L 223.227364 278.283399 
L 233.538097 275.358749 
L 243.848829 272.621667 
L 254.159562 270.073751 
L 264.470295 267.715822 
L 274.781028 265.547954 
L 285.09176 263.569505 
L 295.402493 261.779141 
L 305.713226 260.174864 
L 316.023959 258.754045 
L 326.334691 257.513446 
L 336.645424 256.449251 
L 346.956157 255.557092 
L 360.703801 254.626629 
L 374.451444 253.980292 
L 388.199088 253.603659 
L 401.946732 253.480965 
L 415.694375 253.59521 
L 429.442019 253.928267 
L 443.189663 254.460996 
L 460.374217 255.377084 
L 477.558772 256.532909 
L 498.180237 258.176428 
L 522.238614 260.351488 
L 563.481545 264.382188 
L 597.850654 267.643696 
L 618.472119 269.395585 
L 635.656674 270.66997 
L 652.841228 271.730148 
L 670.025783 272.535001 
L 683.773427 272.968571 
L 697.52107 273.19437 
L 711.268714 273.194184 
L 725.016358 272.950841 
L 738.764001 272.448309 
L 752.511645 271.671777 
L 766.259289 270.607754 
L 776.570021 269.613744 
L 786.880754 268.446636 
L 797.191487 267.102371 
L 807.50222 265.577399 
L 817.812952 263.868707 
L 828.123685 261.973834 
L 838.434418 259.890893 
L 848.745151 257.618589 
L 859.055883 255.156241 
L 869.366616 252.503799 
L 879.677349 249.661868 
L 889.988081 246.63172 
L 900.298814 243.41532 
L 910.609547 240.01534 
L 920.92028 236.435181 
L 934.667923 231.388635 
L 948.415567 226.041182 
L 962.163211 220.407268 
L 975.910854 214.50391 
L 989.658498 208.350767 
L 1003.406142 201.970218 
L 1020.590696 193.713362 
L 1037.775251 185.1962 
L 1058.396716 174.720792 
L 1079.018182 164.083695 
L 1079.018182 164.083695 
" style="fill:none;stroke:#ccebc4;stroke-linecap:square;"/>
   </g>
   <g id="line2d_30">
    <path clip-path="url(#p552d676214)" d="M 51.381818 347.547045 
L 82.314016 331.158086 
L 99.498571 322.276286 
L 116.683126 313.668365 
L 130.430769 307.03172 
L 144.178413 300.655264 
L 157.926057 294.570015 
L 168.236789 290.213648 
L 178.547522 286.046482 
L 188.858255 282.077418 
L 199.168988 278.314237 
L 209.47972 274.763626 
L 219.790453 271.431216 
L 230.101186 268.32161 
L 240.411919 265.438413 
L 250.722651 262.78427 
L 261.033384 260.36089 
L 271.344117 258.169081 
L 281.654849 256.208784 
L 291.965582 254.479097 
L 302.276315 252.978314 
L 312.587048 251.70395 
L 322.89778 250.652775 
L 333.208513 249.820844 
L 343.519246 249.203529 
L 353.829979 248.795549 
L 364.140711 248.590999 
L 374.451444 248.583382 
L 384.762177 248.765642 
L 395.07291 249.130189 
L 405.383642 249.668934 
L 419.131286 250.643377 
L 432.87893 251.890742 
L 446.626573 253.388273 
L 460.374217 255.112071 
L 474.121861 257.037228 
L 491.306415 259.687459 
L 508.49097 262.559926 
L 529.112435 266.224819 
L 563.481545 272.615525 
L 597.850654 278.97415 
L 618.472119 282.589506 
L 635.656674 285.404023 
L 652.841228 287.981869 
L 666.588872 289.839286 
L 680.336516 291.487144 
L 694.084159 292.901088 
L 707.831803 294.057821 
L 721.579447 294.935223 
L 731.890179 295.397385 
L 742.200912 295.68241 
L 752.511645 295.782502 
L 762.822378 295.690367 
L 773.13311 295.39924 
L 783.443843 294.902912 
L 793.754576 294.195759 
L 804.065309 293.272768 
L 814.376041 292.129563 
L 824.686774 290.762436 
L 834.997507 289.16837 
L 845.30824 287.345067 
L 855.618972 285.290976 
L 865.929705 283.005321 
L 876.240438 280.488121 
L 886.551171 277.740227 
L 896.861903 274.763339 
L 907.172636 271.560038 
L 917.483369 268.133811 
L 927.794102 264.489076 
L 938.104834 260.63121 
L 948.415567 256.566576 
L 958.7263 252.302545 
L 969.037033 247.847526 
L 982.784676 241.626933 
L 996.53232 235.10924 
L 1010.279964 228.323465 
L 1024.027607 221.302284 
L 1041.212162 212.250646 
L 1061.833627 201.091588 
L 1079.018182 191.650958 
L 1079.018182 191.650958 
" style="fill:none;stroke:#ffed6f;stroke-linecap:square;"/>
   </g>
   <g id="line2d_31">
    <path clip-path="url(#p552d676214)" d="M 51.381818 348.162207 
L 82.314016 330.394044 
L 99.498571 320.77845 
L 113.246215 313.307699 
L 126.993858 306.084684 
L 140.741502 299.151145 
L 151.052235 294.163492 
L 161.362967 289.373717 
L 171.6737 284.794502 
L 181.984433 280.437198 
L 192.295166 276.311858 
L 202.605898 272.427276 
L 212.916631 268.791017 
L 223.227364 265.40945 
L 233.538097 262.287787 
L 243.848829 259.430114 
L 254.159562 256.839423 
L 264.470295 254.517652 
L 274.781028 252.465712 
L 285.09176 250.683527 
L 295.402493 249.170065 
L 305.713226 247.923371 
L 316.023959 246.940605 
L 326.334691 246.218071 
L 336.645424 245.751255 
L 346.956157 245.534857 
L 357.26689 245.562826 
L 367.577622 245.828392 
L 377.888355 246.324101 
L 388.199088 247.041852 
L 398.509821 247.972924 
L 408.820553 249.108017 
L 419.131286 250.437282 
L 429.442019 251.950354 
L 443.189663 254.234898 
L 456.937306 256.799957 
L 470.68495 259.617337 
L 484.432593 262.657716 
L 501.617148 266.725534 
L 518.801703 271.033376 
L 539.423168 276.431356 
L 577.229188 286.623649 
L 604.724476 293.948678 
L 625.345941 299.213515 
L 642.530496 303.362813 
L 656.278139 306.482021 
L 670.025783 309.390016 
L 683.773427 312.057106 
L 697.52107 314.454673 
L 707.831803 316.059439 
L 718.142536 317.486087 
L 728.453268 318.724012 
L 738.764001 319.763105 
L 749.074734 320.593786 
L 759.385467 321.207038 
L 769.696199 321.59444 
L 780.006932 321.7482 
L 790.317665 321.661192 
L 800.628398 321.326984 
L 810.93913 320.739873 
L 821.249863 319.894924 
L 831.560596 318.787995 
L 841.871329 317.415774 
L 852.182061 315.775816 
L 862.492794 313.86657 
L 872.803527 311.687416 
L 883.11426 309.238697 
L 893.424992 306.521756 
L 903.735725 303.538962 
L 914.046458 300.29375 
L 924.357191 296.790653 
L 934.667923 293.03533 
L 944.978656 289.034609 
L 955.289389 284.796509 
L 965.600122 280.330283 
L 975.910854 275.646445 
L 986.221587 270.756807 
L 999.969231 263.940062 
L 1013.716874 256.815898 
L 1027.464518 249.423695 
L 1044.649073 239.873935 
L 1065.270538 228.08894 
L 1079.018182 220.12223 
L 1079.018182 220.12223 
" style="fill:none;stroke:#8dd3c7;stroke-linecap:square;"/>
   </g>
   <g id="line2d_32">
    <path clip-path="url(#p552d676214)" d="M 51.381818 351.040653 
L 78.877106 334.149592 
L 96.06166 323.836033 
L 109.809304 315.816834 
L 123.556947 308.061696 
L 137.304591 300.618748 
L 147.615324 295.267503 
L 157.926057 290.132539 
L 168.236789 285.228685 
L 178.547522 280.569288 
L 188.858255 276.166252 
L 199.168988 272.030068 
L 209.47972 268.169854 
L 219.790453 264.593394 
L 230.101186 261.307166 
L 240.411919 258.316387 
L 250.722651 255.625044 
L 261.033384 253.235933 
L 271.344117 251.150695 
L 281.654849 249.369852 
L 291.965582 247.892842 
L 302.276315 246.71806 
L 312.587048 245.842892 
L 322.89778 245.263749 
L 333.208513 244.976112 
L 343.519246 244.974557 
L 353.829979 245.252804 
L 364.140711 245.803746 
L 374.451444 246.619487 
L 384.762177 247.691382 
L 395.07291 249.010071 
L 405.383642 250.565521 
L 415.694375 252.347054 
L 426.005108 254.343395 
L 436.315841 256.5427 
L 446.626573 258.932601 
L 460.374217 262.393323 
L 474.121861 266.138249 
L 487.869504 270.134386 
L 501.617148 274.347626 
L 518.801703 279.865983 
L 539.423168 286.764446 
L 570.355366 297.418529 
L 604.724476 309.225544 
L 625.345941 316.060876 
L 642.530496 321.503841 
L 656.278139 325.642095 
L 670.025783 329.550443 
L 683.773427 333.195047 
L 694.084159 335.735718 
L 704.394892 338.096329 
L 714.705625 340.26404 
L 725.016358 342.226507 
L 735.32709 343.971922 
L 745.637823 345.489052 
L 755.948556 346.767278 
L 766.259289 347.796631 
L 776.570021 348.567835 
L 786.880754 349.072343 
L 797.191487 349.302376 
L 807.50222 349.250965 
L 817.812952 348.911984 
L 828.123685 348.280197 
L 838.434418 347.351288 
L 848.745151 346.12191 
L 859.055883 344.589714 
L 869.366616 342.753399 
L 879.677349 340.61274 
L 889.988081 338.168637 
L 900.298814 335.423148 
L 910.609547 332.379533 
L 920.92028 329.042289 
L 931.231012 325.417194 
L 941.541745 321.511342 
L 951.852478 317.333187 
L 962.163211 312.89258 
L 972.473943 308.200809 
L 982.784676 303.270639 
L 993.095409 298.116352 
L 1003.406142 292.753788 
L 1017.153785 285.310086 
L 1030.901429 277.573172 
L 1044.649073 269.594261 
L 1061.833627 259.367267 
L 1079.018182 248.974516 
L 1079.018182 248.974516 
" style="fill:none;stroke:#feffb3;stroke-linecap:square;"/>
   </g>
   <g id="line2d_33">
    <path clip-path="url(#p552d676214)" d="M 51.381818 356.187353 
L 78.877106 338.37847 
L 96.06166 327.513241 
L 109.809304 319.07378 
L 123.556947 310.922563 
L 133.86768 305.030232 
L 144.178413 299.350017 
L 154.489146 293.90044 
L 164.799878 288.698363 
L 175.110611 283.75903 
L 185.421344 279.096105 
L 195.732077 274.721711 
L 206.042809 270.646463 
L 216.353542 266.879511 
L 226.664275 263.428578 
L 236.975008 260.299996 
L 247.28574 257.498746 
L 257.596473 255.028496 
L 267.907206 252.89164 
L 278.217939 251.089336 
L 288.528671 249.621547 
L 298.839404 248.487076 
L 309.150137 247.683611 
L 319.46087 247.207758 
L 329.771602 247.055083 
L 340.082335 247.220152 
L 350.393068 247.696569 
L 360.703801 248.477017 
L 371.014533 249.553297 
L 381.325266 250.916367 
L 391.635999 252.556381 
L 401.946732 254.462732 
L 412.257464 256.624092 
L 422.568197 259.028447 
L 432.87893 261.663142 
L 443.189663 264.514922 
L 453.500395 267.569968 
L 463.811128 270.81394 
L 477.558772 275.407445 
L 491.306415 280.274097 
L 505.054059 285.376355 
L 522.238614 292.026626 
L 542.860079 300.304352 
L 573.792277 313.044298 
L 604.724476 325.756328 
L 625.345941 333.984451 
L 642.530496 340.574494 
L 656.278139 345.616248 
L 670.025783 350.411503 
L 683.773427 354.922795 
L 694.084159 358.098075 
L 704.394892 361.078465 
L 714.705625 363.849702 
L 725.016358 366.398061 
L 735.32709 368.710395 
L 745.637823 370.774184 
L 755.948556 372.577577 
L 766.259289 374.109431 
L 776.570021 375.359358 
L 786.880754 376.317771 
L 797.191487 376.975921 
L 807.50222 377.325947 
L 817.812952 377.360917 
L 828.123685 377.074872 
L 838.434418 376.46287 
L 848.745151 375.521033 
L 859.055883 374.246586 
L 869.366616 372.637906 
L 879.677349 370.694566 
L 889.988081 368.417374 
L 900.298814 365.808428 
L 910.609547 362.871149 
L 920.92028 359.610336 
L 931.231012 356.032205 
L 941.541745 352.144434 
L 951.852478 347.956212 
L 962.163211 343.478282 
L 972.473943 338.722985 
L 982.784676 333.704308 
L 993.095409 328.437927 
L 1003.406142 322.941257 
L 1013.716874 317.23349 
L 1027.464518 309.331368 
L 1041.212162 301.146587 
L 1058.396716 290.611874 
L 1079.018182 277.702837 
L 1079.018182 277.702837 
" style="fill:none;stroke:#bfbbd9;stroke-linecap:square;"/>
   </g>
   <g id="line2d_34">
    <path clip-path="url(#p552d676214)" d="M 51.381818 363.561621 
L 78.877106 344.992151 
L 96.06166 333.670331 
L 109.809304 324.883604 
L 123.556947 316.405781 
L 133.86768 310.284423 
L 144.178413 304.390535 
L 154.489146 298.74405 
L 164.799878 293.363136 
L 175.110611 288.264235 
L 185.421344 283.462104 
L 195.732077 278.969853 
L 206.042809 274.798985 
L 216.353542 270.95944 
L 226.664275 267.459626 
L 236.975008 264.306469 
L 243.848829 262.399715 
L 250.722651 260.650768 
L 257.596473 259.060631 
L 264.470295 257.630038 
L 271.344117 256.359462 
L 278.217939 255.249122 
L 285.09176 254.298983 
L 291.965582 253.508765 
L 298.839404 252.877949 
L 305.713226 252.405782 
L 312.587048 252.091279 
L 319.46087 251.933235 
L 326.334691 251.930223 
L 333.208513 252.080605 
L 340.082335 252.382536 
L 350.393068 253.115054 
L 360.703801 254.176172 
L 371.014533 255.557205 
L 381.325266 257.248559 
L 391.635999 259.239771 
L 401.946732 261.519554 
L 412.257464 264.075837 
L 422.568197 266.895809 
L 432.87893 269.965963 
L 443.189663 273.272136 
L 453.500395 276.799554 
L 463.811128 280.532875 
L 474.121861 284.456231 
L 487.869504 289.954663 
L 501.617148 295.721878 
L 515.364792 301.716737 
L 532.549346 309.466132 
L 553.170812 319.029372 
L 618.472119 349.577385 
L 635.656674 357.268661 
L 649.404317 363.203036 
L 663.151961 368.897321 
L 676.899605 374.310381 
L 687.210337 378.16156 
L 697.52107 381.815745 
L 707.831803 385.257107 
L 718.142536 388.47036 
L 728.453268 391.440804 
L 738.764001 394.154377 
L 749.074734 396.597699 
L 759.385467 398.758119 
L 769.696199 400.623764 
L 780.006932 402.183587 
L 790.317665 403.42741 
L 800.628398 404.345978 
L 807.50222 404.773525 
L 814.376041 405.050603 
L 821.249863 405.175213 
L 828.123685 405.145568 
L 834.997507 404.960101 
L 841.871329 404.617472 
L 848.745151 404.116573 
L 855.618972 403.456536 
L 862.492794 402.636737 
L 869.366616 401.656805 
L 876.240438 400.516624 
L 883.11426 399.216348 
L 889.988081 397.756399 
L 896.861903 396.137476 
L 903.735725 394.360563 
L 910.609547 392.426936 
L 920.92028 389.236178 
L 931.231012 385.703013 
L 941.541745 381.835622 
L 951.852478 377.643824 
L 962.163211 373.139121 
L 972.473943 368.334755 
L 982.784676 363.245755 
L 993.095409 357.888986 
L 1003.406142 352.283203 
L 1013.716874 346.449099 
L 1027.464518 338.354624 
L 1041.212162 329.954236 
L 1058.396716 319.124909 
L 1079.018182 305.84012 
L 1079.018182 305.84012 
" style="fill:none;stroke:#fa8174;stroke-linecap:square;"/>
   </g>
   <g id="line2d_35">
    <path clip-path="url(#p552d676214)" d="M 51.381818 373.074625 
L 78.877106 353.898168 
L 96.06166 342.212459 
L 109.809304 333.149462 
L 123.556947 324.412392 
L 133.86768 318.109719 
L 144.178413 312.047163 
L 154.489146 306.245818 
L 164.799878 300.724923 
L 175.110611 295.501904 
L 185.421344 290.592415 
L 195.732077 286.010378 
L 206.042809 281.768023 
L 216.353542 277.875932 
L 223.227364 275.480293 
L 230.101186 273.246619 
L 236.975008 271.176875 
L 243.848829 269.272731 
L 250.722651 267.535562 
L 257.596473 265.966455 
L 264.470295 264.566217 
L 271.344117 263.335379 
L 278.217939 262.274201 
L 285.09176 261.382675 
L 291.965582 260.66054 
L 298.839404 260.107275 
L 305.713226 259.722114 
L 312.587048 259.504049 
L 319.46087 259.451834 
L 326.334691 259.563993 
L 333.208513 259.838824 
L 340.082335 260.274405 
L 346.956157 260.868602 
L 353.829979 261.619071 
L 360.703801 262.523266 
L 371.014533 264.161746 
L 381.325266 266.129844 
L 391.635999 268.416586 
L 401.946732 271.010121 
L 412.257464 273.897766 
L 422.568197 277.066051 
L 432.87893 280.500764 
L 443.189663 284.186992 
L 453.500395 288.109175 
L 463.811128 292.251142 
L 474.121861 296.596163 
L 487.869504 302.675509 
L 501.617148 309.042969 
L 515.364792 315.655097 
L 532.549346 324.19638 
L 553.170812 334.733298 
L 621.90903 370.162357 
L 639.093585 378.620856 
L 652.841228 385.147539 
L 666.588872 391.412499 
L 680.336516 397.372345 
L 690.647248 401.616639 
L 700.957981 405.648425 
L 711.268714 409.451052 
L 721.579447 413.008452 
L 731.890179 416.305193 
L 742.200912 419.326527 
L 752.511645 422.058444 
L 762.822378 424.487719 
L 773.13311 426.601962 
L 783.443843 428.389674 
L 790.317665 429.394819 
L 797.191487 430.247237 
L 804.065309 430.944242 
L 810.93913 431.483359 
L 817.812952 431.862327 
L 824.686774 432.079109 
L 831.560596 432.131895 
L 838.434418 432.019115 
L 845.30824 431.739439 
L 852.182061 431.291788 
L 859.055883 430.675339 
L 865.929705 429.889535 
L 872.803527 428.934087 
L 879.677349 427.808985 
L 886.551171 426.514504 
L 893.424992 425.051208 
L 900.298814 423.419963 
L 907.172636 421.621936 
L 914.046458 419.65861 
L 920.92028 417.531786 
L 927.794102 415.243592 
L 934.667923 412.796489 
L 944.978656 408.834101 
L 955.289389 404.531482 
L 965.600122 399.901374 
L 975.910854 394.958387 
L 986.221587 389.719054 
L 996.53232 384.201883 
L 1006.843053 378.427413 
L 1017.153785 372.41827 
L 1027.464518 366.199219 
L 1041.212162 357.627549 
L 1054.959805 348.801055 
L 1075.581271 335.255128 
L 1079.018182 332.97891 
L 1079.018182 332.97891 
" style="fill:none;stroke:#81b1d2;stroke-linecap:square;"/>
   </g>
   <g id="line2d_36">
    <path clip-path="url(#p552d676214)" d="M 51.381818 384.587069 
L 78.877106 364.949602 
L 96.06166 352.987948 
L 109.809304 343.715873 
L 120.120036 336.980975 
L 130.430769 330.463735 
L 140.741502 324.188789 
L 151.052235 318.178793 
L 161.362967 312.454463 
L 171.6737 307.03462 
L 181.984433 301.93623 
L 192.295166 297.174444 
L 202.605898 292.762644 
L 209.47972 290.021705 
L 216.353542 287.444562 
L 223.227364 285.033924 
L 230.101186 282.792176 
L 236.975008 280.721385 
L 243.848829 278.823312 
L 250.722651 277.099411 
L 257.596473 275.550835 
L 264.470295 274.178446 
L 271.344117 272.982819 
L 278.217939 271.964245 
L 285.09176 271.122741 
L 291.965582 270.458052 
L 298.839404 269.96966 
L 305.713226 269.656788 
L 312.587048 269.518406 
L 319.46087 269.553236 
L 326.334691 269.759762 
L 333.208513 270.136231 
L 340.082335 270.680661 
L 346.956157 271.390846 
L 353.829979 272.264364 
L 360.703801 273.298582 
L 367.577622 274.49066 
L 374.451444 275.837562 
L 384.762177 278.141085 
L 395.07291 280.773955 
L 405.383642 283.72358 
L 415.694375 286.976513 
L 426.005108 290.518499 
L 436.315841 294.334521 
L 446.626573 298.408844 
L 456.937306 302.725067 
L 467.248039 307.266168 
L 477.558772 312.01455 
L 491.306415 318.63677 
L 505.054059 325.55096 
L 518.801703 332.711553 
L 535.986257 341.937611 
L 556.607723 353.289577 
L 618.472119 387.592924 
L 635.656674 396.762825 
L 649.404317 403.864327 
L 663.151961 410.706703 
L 676.899605 417.244262 
L 687.210337 421.920648 
L 697.52107 426.382419 
L 707.831803 430.611953 
L 718.142536 434.592213 
L 728.453268 438.306807 
L 738.764001 441.740037 
L 749.074734 444.876952 
L 759.385467 447.703401 
L 769.696199 450.206088 
L 776.570021 451.68852 
L 783.443843 453.018095 
L 790.317665 454.191572 
L 797.191487 455.205916 
L 804.065309 456.058302 
L 810.93913 456.746123 
L 817.812952 457.266997 
L 824.686774 457.618774 
L 831.560596 457.799544 
L 838.434418 457.807645 
L 845.30824 457.641665 
L 852.182061 457.300458 
L 859.055883 456.783142 
L 865.929705 456.089112 
L 872.803527 455.218048 
L 879.677349 454.169917 
L 886.551171 452.944986 
L 893.424992 451.543824 
L 900.298814 449.967314 
L 907.172636 448.216659 
L 914.046458 446.293387 
L 920.92028 444.199362 
L 927.794102 441.936789 
L 934.667923 439.508221 
L 941.541745 436.916569 
L 951.852478 432.730573 
L 962.163211 428.19772 
L 972.473943 423.332573 
L 982.784676 418.151692 
L 993.095409 412.673688 
L 1003.406142 406.919283 
L 1013.716874 400.911365 
L 1024.027607 394.675048 
L 1037.775251 386.052364 
L 1051.522894 377.144063 
L 1068.707449 365.728288 
L 1079.018182 358.7949 
L 1079.018182 358.7949 
" style="fill:none;stroke:#fdb462;stroke-linecap:square;"/>
   </g>
   <g id="line2d_37">
    <path clip-path="url(#p552d676214)" d="M 51.381818 397.907036 
L 78.877106 377.942622 
L 92.624749 368.186972 
L 106.372393 358.690799 
L 116.683126 351.782911 
L 126.993858 345.090139 
L 137.304591 338.638551 
L 147.615324 332.452164 
L 157.926057 326.552993 
L 168.236789 320.961089 
L 178.547522 315.694582 
L 188.858255 310.769725 
L 199.168988 306.200935 
L 206.042809 303.359197 
L 212.916631 300.684667 
L 219.790453 298.180312 
L 226.664275 295.848765 
L 233.538097 293.692334 
L 240.411919 291.713001 
L 247.28574 289.912433 
L 254.159562 288.291988 
L 261.033384 286.852716 
L 267.907206 285.59537 
L 274.781028 284.52041 
L 281.654849 283.628008 
L 288.528671 282.918055 
L 295.402493 282.390166 
L 302.276315 282.04369 
L 309.150137 281.877708 
L 316.023959 281.891046 
L 322.89778 282.082278 
L 329.771602 282.449735 
L 336.645424 282.991505 
L 343.519246 283.705445 
L 350.393068 284.589185 
L 357.26689 285.640133 
L 364.140711 286.855484 
L 371.014533 288.232222 
L 377.888355 289.767131 
L 384.762177 291.456795 
L 395.07291 294.273526 
L 405.383642 297.417376 
L 415.694375 300.874528 
L 426.005108 304.630332 
L 436.315841 308.669348 
L 446.626573 312.9754 
L 456.937306 317.531616 
L 467.248039 322.320484 
L 477.558772 327.323898 
L 491.306415 334.296545 
L 505.054059 341.571832 
L 518.801703 349.102843 
L 535.986257 358.802898 
L 556.607723 370.736044 
L 618.472119 406.81528 
L 635.656674 416.473894 
L 649.404317 423.961081 
L 663.151961 431.182821 
L 676.899605 438.091953 
L 687.210337 443.041037 
L 697.52107 447.76972 
L 707.831803 452.2598 
L 718.142536 456.493677 
L 728.453268 460.454413 
L 738.764001 464.125783 
L 749.074734 467.492331 
L 759.385467 470.539425 
L 769.696199 473.253309 
L 776.570021 474.871077 
L 783.443843 476.331476 
L 790.317665 477.631152 
L 797.191487 478.76696 
L 804.065309 479.735972 
L 810.93913 480.535487 
L 817.812952 481.163034 
L 824.686774 481.61638 
L 831.560596 481.893543 
L 838.434418 481.992792 
L 845.30824 481.91266 
L 852.182061 481.651946 
L 859.055883 481.209729 
L 865.929705 480.585372 
L 872.803527 479.778527 
L 879.677349 478.78915 
L 886.551171 477.617499 
L 893.424992 476.264151 
L 900.298814 474.730002 
L 907.172636 473.016279 
L 914.046458 471.124547 
L 920.92028 469.056715 
L 927.794102 466.815046 
L 934.667923 464.402163 
L 941.541745 461.821058 
L 948.415567 459.075098 
L 958.7263 454.655367 
L 969.037033 449.887565 
L 979.347765 444.788055 
L 989.658498 439.375301 
L 999.969231 433.669929 
L 1010.279964 427.694784 
L 1020.590696 421.474996 
L 1030.901429 415.038033 
L 1044.649073 406.169572 
L 1058.396716 397.046061 
L 1079.018182 383.072287 
L 1079.018182 383.072287 
" style="fill:none;stroke:#b3de69;stroke-linecap:square;"/>
   </g>
   <g id="line2d_38">
    <path clip-path="url(#p552d676214)" d="M 51.381818 412.788 
L 78.877106 392.61419 
L 92.624749 382.758172 
L 106.372393 373.166612 
L 116.683126 366.19131 
L 126.993858 359.435278 
L 137.304591 352.925101 
L 147.615324 346.685276 
L 157.926057 340.738261 
L 168.236789 335.104515 
L 178.547522 329.802539 
L 188.858255 324.848925 
L 195.732077 321.747395 
L 202.605898 318.811182 
L 209.47972 316.043841 
L 216.353542 313.448578 
L 223.227364 311.028255 
L 230.101186 308.785398 
L 236.975008 306.722202 
L 243.848829 304.840534 
L 250.722651 303.141943 
L 257.596473 301.627666 
L 264.470295 300.298629 
L 271.344117 299.155459 
L 278.217939 298.198484 
L 285.09176 297.427747 
L 291.965582 296.843003 
L 298.839404 296.443731 
L 305.713226 296.229139 
L 312.587048 296.198167 
L 319.46087 296.3495 
L 326.334691 296.681564 
L 333.208513 297.192543 
L 340.082335 297.880377 
L 346.956157 298.742771 
L 353.829979 299.777205 
L 360.703801 300.980932 
L 367.577622 302.350991 
L 374.451444 303.884212 
L 381.325266 305.57722 
L 388.199088 307.426443 
L 398.509821 310.4849 
L 408.820553 313.872861 
L 419.131286 317.575969 
L 429.442019 321.579029 
L 439.752752 325.866058 
L 450.063484 330.420333 
L 460.374217 335.224442 
L 470.68495 340.26033 
L 480.995683 345.509353 
L 494.743326 352.806362 
L 508.49097 360.401302 
L 522.238614 368.246025 
L 539.423168 378.328032 
L 560.044634 390.701559 
L 615.035208 423.89528 
L 632.219763 433.947229 
L 645.967407 441.75946 
L 659.71505 449.314106 
L 673.462694 456.562706 
L 683.773427 461.769895 
L 694.084159 466.759052 
L 704.394892 471.511389 
L 714.705625 476.008716 
L 725.016358 480.233499 
L 735.32709 484.168909 
L 745.637823 487.798885 
L 755.948556 491.108184 
L 766.259289 494.082439 
L 773.13311 495.872467 
L 780.006932 497.503857 
L 786.880754 498.973075 
L 793.754576 500.276794 
L 800.628398 501.411908 
L 807.50222 502.375534 
L 814.376041 503.165023 
L 821.249863 503.777967 
L 828.123685 504.212206 
L 834.997507 504.465833 
L 841.871329 504.537209 
L 848.745151 504.424962 
L 855.618972 504.128001 
L 862.492794 503.64552 
L 869.366616 502.977007 
L 876.240438 502.122253 
L 883.11426 501.081358 
L 889.988081 499.854739 
L 896.861903 498.443137 
L 903.735725 496.847629 
L 910.609547 495.06963 
L 917.483369 493.110905 
L 924.357191 490.973573 
L 931.231012 488.660122 
L 938.104834 486.173407 
L 944.978656 483.516667 
L 951.852478 480.693528 
L 962.163211 476.155728 
L 972.473943 471.267961 
L 982.784676 466.047619 
L 993.095409 460.514266 
L 1003.406142 454.68969 
L 1013.716874 448.597974 
L 1024.027607 442.265551 
L 1037.775251 433.498104 
L 1051.522894 424.429562 
L 1068.707449 412.79824 
L 1079.018182 405.730948 
L 1079.018182 405.730948 
" style="fill:none;stroke:#bc82bd;stroke-linecap:square;"/>
   </g>
   <g id="line2d_39">
    <path clip-path="url(#p552d676214)" d="M 51.381818 428.927002 
L 78.877106 408.639937 
L 92.624749 398.729892 
L 106.372393 389.087292 
L 116.683126 382.076184 
L 126.993858 375.286836 
L 137.304591 368.746142 
L 147.615324 362.478885 
L 157.926057 356.507786 
L 168.236789 350.853546 
L 178.547522 345.53489 
L 188.858255 340.568607 
L 195.732077 337.46095 
L 202.605898 334.520523 
L 209.47972 331.750923 
L 216.353542 329.155399 
L 223.227364 326.736848 
L 230.101186 324.49783 
L 236.975008 322.440568 
L 243.848829 320.566956 
L 250.722651 318.878564 
L 257.596473 317.376648 
L 264.470295 316.062148 
L 271.344117 314.935703 
L 278.217939 313.99765 
L 285.09176 313.248036 
L 291.965582 312.686617 
L 298.839404 312.312871 
L 305.713226 312.126001 
L 312.587048 312.12494 
L 319.46087 312.308359 
L 326.334691 312.674674 
L 333.208513 313.22205 
L 340.082335 313.948408 
L 346.956157 314.851431 
L 353.829979 315.928572 
L 360.703801 317.177058 
L 367.577622 318.593897 
L 374.451444 320.175885 
L 381.325266 321.919614 
L 388.199088 323.821472 
L 398.509821 326.962384 
L 408.820553 330.436872 
L 419.131286 334.230424 
L 429.442019 338.327678 
L 439.752752 342.712475 
L 450.063484 347.367906 
L 460.374217 352.276365 
L 470.68495 357.419594 
L 480.995683 362.778739 
L 494.743326 370.226524 
L 508.49097 377.976261 
L 522.238614 385.979248 
L 539.423168 396.263092 
L 560.044634 408.88319 
L 615.035208 442.742803 
L 632.219763 453.000826 
L 645.967407 460.975795 
L 659.71505 468.690642 
L 673.462694 476.096316 
L 683.773427 481.418912 
L 694.084159 486.521154 
L 704.394892 491.384021 
L 714.705625 495.9891 
L 725.016358 500.318635 
L 735.32709 504.355589 
L 745.637823 508.083695 
L 755.948556 511.487519 
L 766.259289 514.55251 
L 773.13311 516.400837 
L 780.006932 518.088716 
L 786.880754 519.612567 
L 793.754576 520.96902 
L 800.628398 522.154926 
L 807.50222 523.167365 
L 814.376041 524.003652 
L 821.249863 524.661345 
L 828.123685 525.138254 
L 834.997507 525.432446 
L 841.871329 525.542257 
L 848.745151 525.466296 
L 855.618972 525.203452 
L 862.492794 524.752908 
L 869.366616 524.11414 
L 876.240438 523.286932 
L 883.11426 522.271382 
L 889.988081 521.067908 
L 896.861903 519.677256 
L 903.735725 518.10051 
L 910.609547 516.3391 
L 917.483369 514.394808 
L 924.357191 512.269776 
L 931.231012 509.966516 
L 938.104834 507.487916 
L 944.978656 504.837249 
L 951.852478 502.018183 
L 958.7263 499.034784 
L 969.037033 494.261468 
L 979.347765 489.14545 
L 989.658498 483.705783 
L 999.969231 477.963754 
L 1010.279964 471.942951 
L 1020.590696 465.669322 
L 1030.901429 459.171239 
L 1044.649073 450.211683 
L 1058.396716 440.988488 
L 1079.018182 426.855442 
L 1079.018182 426.855442 
" style="fill:none;stroke:#ccebc4;stroke-linecap:square;"/>
   </g>
   <g id="line2d_40">
    <path clip-path="url(#p552d676214)" d="M 51.381818 445.962994 
L 78.877106 425.632204 
L 92.624749 415.7016 
L 106.372393 406.03994 
L 116.683126 399.015773 
L 126.993858 392.214614 
L 137.304591 385.663505 
L 147.615324 379.387374 
L 157.926057 373.409071 
L 168.236789 367.749417 
L 178.547522 362.427243 
L 188.858255 357.45944 
L 195.732077 354.351921 
L 202.605898 351.412581 
L 209.47972 348.645041 
L 216.353542 346.052566 
L 223.227364 343.638072 
L 230.101186 341.404135 
L 236.975008 339.352991 
L 243.848829 337.486546 
L 250.722651 335.806382 
L 257.596473 334.31376 
L 264.470295 333.00963 
L 271.344117 331.894633 
L 278.217939 330.969112 
L 285.09176 330.233113 
L 291.965582 329.686394 
L 298.839404 329.32843 
L 305.713226 329.158421 
L 312.587048 329.175295 
L 319.46087 329.377719 
L 326.334691 329.764099 
L 333.208513 330.332591 
L 340.082335 331.081105 
L 346.956157 332.007314 
L 353.829979 333.108656 
L 360.703801 334.382344 
L 367.577622 335.825371 
L 374.451444 337.434516 
L 381.325266 339.20635 
L 388.199088 341.137245 
L 398.509821 344.323411 
L 408.820553 347.845126 
L 419.131286 351.687799 
L 429.442019 355.835983 
L 439.752752 360.273431 
L 450.063484 364.98314 
L 460.374217 369.947404 
L 470.68495 375.147866 
L 480.995683 380.565564 
L 494.743326 388.093288 
L 508.49097 395.924852 
L 522.238614 404.011278 
L 539.423168 414.401259 
L 560.044634 427.150665 
L 615.035208 461.358109 
L 632.219763 471.723507 
L 645.967407 479.783222 
L 659.71505 487.581472 
L 673.462694 495.06892 
L 683.773427 500.451606 
L 694.084159 505.612748 
L 704.394892 510.533212 
L 714.705625 515.194475 
L 725.016358 519.578676 
L 735.32709 523.668676 
L 745.637823 527.448112 
L 755.948556 530.901455 
L 766.259289 534.014066 
L 773.13311 535.893045 
L 780.006932 537.610673 
L 786.880754 539.163347 
L 793.754576 540.547676 
L 800.628398 541.760494 
L 807.50222 542.79886 
L 814.376041 543.660073 
L 821.249863 544.341677 
L 828.123685 544.841467 
L 834.997507 545.157498 
L 841.871329 545.288094 
L 848.745151 545.231854 
L 855.618972 544.987662 
L 862.492794 544.554693 
L 869.366616 543.932419 
L 876.240438 543.120622 
L 883.11426 542.119399 
L 889.988081 540.929168 
L 896.861903 539.55068 
L 903.735725 537.985024 
L 910.609547 536.233636 
L 917.483369 534.298308 
L 924.357191 532.181193 
L 931.231012 529.884816 
L 938.104834 527.412082 
L 944.978656 524.766282 
L 951.852478 521.951102 
L 958.7263 518.970634 
L 969.037033 514.199976 
L 979.347765 509.084618 
L 989.658498 503.643721 
L 999.969231 497.898694 
L 1010.279964 491.87326 
L 1020.590696 485.593518 
L 1030.901429 479.088005 
L 1044.649073 470.116807 
L 1058.396716 460.880418 
L 1079.018182 446.725823 
L 1079.018182 446.725823 
" style="fill:none;stroke:#ffed6f;stroke-linecap:square;"/>
   </g>
  </g>
 </g>
 <defs>
  <clipPath id="p552d676214">
   <rect height="698.4" width="1130.4" x="0" y="-0"/>
  </clipPath>
 </defs>
</svg>
